<mxfile host="app.diagrams.net" modified="2024-06-27T17:03:29.290Z" agent="Mozilla/5.0 (Windows NT 10.0; Win64; x64) AppleWebKit/537.36 (KHTML, like Gecko) Chrome/126.0.0.0 Safari/537.36" etag="Y3i6i6ygMPQaw4VZIJBc" version="24.5.2" type="device">
  <diagram id="R2lEEEUBdFMjLlhIrx00" name="Page-1">
    <mxGraphModel dx="2068" dy="1014" grid="0" gridSize="10" guides="1" tooltips="1" connect="1" arrows="1" fold="1" page="1" pageScale="1" pageWidth="850" pageHeight="1100" math="0" shadow="0" extFonts="Permanent Marker^https://fonts.googleapis.com/css?family=Permanent+Marker">
      <root>
        <mxCell id="0" />
        <mxCell id="1" parent="0" />
        <mxCell id="C-vyLk0tnHw3VtMMgP7b-23" value="aerobicsapplicants" style="shape=table;startSize=30;container=1;collapsible=1;childLayout=tableLayout;fixedRows=1;rowLines=0;fontStyle=1;align=center;resizeLast=1;fillStyle=solid;" parent="1" vertex="1">
          <mxGeometry x="120" y="120" width="250" height="370" as="geometry" />
        </mxCell>
        <mxCell id="C-vyLk0tnHw3VtMMgP7b-24" value="" style="shape=partialRectangle;collapsible=0;dropTarget=0;pointerEvents=0;fillColor=none;points=[[0,0.5],[1,0.5]];portConstraint=eastwest;top=0;left=0;right=0;bottom=1;" parent="C-vyLk0tnHw3VtMMgP7b-23" vertex="1">
          <mxGeometry y="30" width="250" height="30" as="geometry" />
        </mxCell>
        <mxCell id="C-vyLk0tnHw3VtMMgP7b-25" value="PK" style="shape=partialRectangle;overflow=hidden;connectable=0;fillColor=none;top=0;left=0;bottom=0;right=0;fontStyle=1;" parent="C-vyLk0tnHw3VtMMgP7b-24" vertex="1">
          <mxGeometry width="30" height="30" as="geometry">
            <mxRectangle width="30" height="30" as="alternateBounds" />
          </mxGeometry>
        </mxCell>
        <mxCell id="C-vyLk0tnHw3VtMMgP7b-26" value="Transaction_id int AI PK" style="shape=partialRectangle;overflow=hidden;connectable=0;fillColor=none;top=0;left=0;bottom=0;right=0;align=left;spacingLeft=6;fontStyle=5;" parent="C-vyLk0tnHw3VtMMgP7b-24" vertex="1">
          <mxGeometry x="30" width="220" height="30" as="geometry">
            <mxRectangle width="220" height="30" as="alternateBounds" />
          </mxGeometry>
        </mxCell>
        <mxCell id="_2BZUjgcxiHqNRs6hB5g-7" value="" style="shape=partialRectangle;collapsible=0;dropTarget=0;pointerEvents=0;fillColor=none;points=[[0,0.5],[1,0.5]];portConstraint=eastwest;top=0;left=0;right=0;bottom=0;" vertex="1" parent="C-vyLk0tnHw3VtMMgP7b-23">
          <mxGeometry y="60" width="250" height="30" as="geometry" />
        </mxCell>
        <mxCell id="_2BZUjgcxiHqNRs6hB5g-8" value="" style="shape=partialRectangle;overflow=hidden;connectable=0;fillColor=none;top=0;left=0;bottom=0;right=0;" vertex="1" parent="_2BZUjgcxiHqNRs6hB5g-7">
          <mxGeometry width="30" height="30" as="geometry">
            <mxRectangle width="30" height="30" as="alternateBounds" />
          </mxGeometry>
        </mxCell>
        <mxCell id="_2BZUjgcxiHqNRs6hB5g-9" value="Instructor&#39;s First Name varchar(50)" style="shape=partialRectangle;overflow=hidden;connectable=0;fillColor=none;top=0;left=0;bottom=0;right=0;align=left;spacingLeft=6;" vertex="1" parent="_2BZUjgcxiHqNRs6hB5g-7">
          <mxGeometry x="30" width="220" height="30" as="geometry">
            <mxRectangle width="220" height="30" as="alternateBounds" />
          </mxGeometry>
        </mxCell>
        <mxCell id="_2BZUjgcxiHqNRs6hB5g-10" value="" style="shape=partialRectangle;collapsible=0;dropTarget=0;pointerEvents=0;fillColor=none;points=[[0,0.5],[1,0.5]];portConstraint=eastwest;top=0;left=0;right=0;bottom=0;" vertex="1" parent="C-vyLk0tnHw3VtMMgP7b-23">
          <mxGeometry y="90" width="250" height="30" as="geometry" />
        </mxCell>
        <mxCell id="_2BZUjgcxiHqNRs6hB5g-11" value="" style="shape=partialRectangle;overflow=hidden;connectable=0;fillColor=none;top=0;left=0;bottom=0;right=0;" vertex="1" parent="_2BZUjgcxiHqNRs6hB5g-10">
          <mxGeometry width="30" height="30" as="geometry">
            <mxRectangle width="30" height="30" as="alternateBounds" />
          </mxGeometry>
        </mxCell>
        <mxCell id="_2BZUjgcxiHqNRs6hB5g-12" value="Instructor&#39;s Last Name varchar(50)" style="shape=partialRectangle;overflow=hidden;connectable=0;fillColor=none;top=0;left=0;bottom=0;right=0;align=left;spacingLeft=6;" vertex="1" parent="_2BZUjgcxiHqNRs6hB5g-10">
          <mxGeometry x="30" width="220" height="30" as="geometry">
            <mxRectangle width="220" height="30" as="alternateBounds" />
          </mxGeometry>
        </mxCell>
        <mxCell id="_2BZUjgcxiHqNRs6hB5g-13" value="" style="shape=partialRectangle;collapsible=0;dropTarget=0;pointerEvents=0;fillColor=none;points=[[0,0.5],[1,0.5]];portConstraint=eastwest;top=0;left=0;right=0;bottom=0;" vertex="1" parent="C-vyLk0tnHw3VtMMgP7b-23">
          <mxGeometry y="120" width="250" height="30" as="geometry" />
        </mxCell>
        <mxCell id="_2BZUjgcxiHqNRs6hB5g-14" value="" style="shape=partialRectangle;overflow=hidden;connectable=0;fillColor=none;top=0;left=0;bottom=0;right=0;" vertex="1" parent="_2BZUjgcxiHqNRs6hB5g-13">
          <mxGeometry width="30" height="30" as="geometry">
            <mxRectangle width="30" height="30" as="alternateBounds" />
          </mxGeometry>
        </mxCell>
        <mxCell id="_2BZUjgcxiHqNRs6hB5g-15" value="Instructor&#39;s Id int" style="shape=partialRectangle;overflow=hidden;connectable=0;fillColor=none;top=0;left=0;bottom=0;right=0;align=left;spacingLeft=6;" vertex="1" parent="_2BZUjgcxiHqNRs6hB5g-13">
          <mxGeometry x="30" width="220" height="30" as="geometry">
            <mxRectangle width="220" height="30" as="alternateBounds" />
          </mxGeometry>
        </mxCell>
        <mxCell id="_2BZUjgcxiHqNRs6hB5g-16" value="" style="shape=partialRectangle;collapsible=0;dropTarget=0;pointerEvents=0;fillColor=none;points=[[0,0.5],[1,0.5]];portConstraint=eastwest;top=0;left=0;right=0;bottom=0;" vertex="1" parent="C-vyLk0tnHw3VtMMgP7b-23">
          <mxGeometry y="150" width="250" height="30" as="geometry" />
        </mxCell>
        <mxCell id="_2BZUjgcxiHqNRs6hB5g-17" value="" style="shape=partialRectangle;overflow=hidden;connectable=0;fillColor=none;top=0;left=0;bottom=0;right=0;" vertex="1" parent="_2BZUjgcxiHqNRs6hB5g-16">
          <mxGeometry width="30" height="30" as="geometry">
            <mxRectangle width="30" height="30" as="alternateBounds" />
          </mxGeometry>
        </mxCell>
        <mxCell id="_2BZUjgcxiHqNRs6hB5g-18" value="FirstName varchar(255)" style="shape=partialRectangle;overflow=hidden;connectable=0;fillColor=none;top=0;left=0;bottom=0;right=0;align=left;spacingLeft=6;" vertex="1" parent="_2BZUjgcxiHqNRs6hB5g-16">
          <mxGeometry x="30" width="220" height="30" as="geometry">
            <mxRectangle width="220" height="30" as="alternateBounds" />
          </mxGeometry>
        </mxCell>
        <mxCell id="_2BZUjgcxiHqNRs6hB5g-19" value="" style="shape=partialRectangle;collapsible=0;dropTarget=0;pointerEvents=0;fillColor=none;points=[[0,0.5],[1,0.5]];portConstraint=eastwest;top=0;left=0;right=0;bottom=0;" vertex="1" parent="C-vyLk0tnHw3VtMMgP7b-23">
          <mxGeometry y="180" width="250" height="30" as="geometry" />
        </mxCell>
        <mxCell id="_2BZUjgcxiHqNRs6hB5g-20" value="" style="shape=partialRectangle;overflow=hidden;connectable=0;fillColor=none;top=0;left=0;bottom=0;right=0;" vertex="1" parent="_2BZUjgcxiHqNRs6hB5g-19">
          <mxGeometry width="30" height="30" as="geometry">
            <mxRectangle width="30" height="30" as="alternateBounds" />
          </mxGeometry>
        </mxCell>
        <mxCell id="_2BZUjgcxiHqNRs6hB5g-21" value="LastName varchar(255)" style="shape=partialRectangle;overflow=hidden;connectable=0;fillColor=none;top=0;left=0;bottom=0;right=0;align=left;spacingLeft=6;" vertex="1" parent="_2BZUjgcxiHqNRs6hB5g-19">
          <mxGeometry x="30" width="220" height="30" as="geometry">
            <mxRectangle width="220" height="30" as="alternateBounds" />
          </mxGeometry>
        </mxCell>
        <mxCell id="_2BZUjgcxiHqNRs6hB5g-22" value="" style="shape=partialRectangle;collapsible=0;dropTarget=0;pointerEvents=0;fillColor=none;points=[[0,0.5],[1,0.5]];portConstraint=eastwest;top=0;left=0;right=0;bottom=0;" vertex="1" parent="C-vyLk0tnHw3VtMMgP7b-23">
          <mxGeometry y="210" width="250" height="30" as="geometry" />
        </mxCell>
        <mxCell id="_2BZUjgcxiHqNRs6hB5g-23" value="" style="shape=partialRectangle;overflow=hidden;connectable=0;fillColor=none;top=0;left=0;bottom=0;right=0;" vertex="1" parent="_2BZUjgcxiHqNRs6hB5g-22">
          <mxGeometry width="30" height="30" as="geometry">
            <mxRectangle width="30" height="30" as="alternateBounds" />
          </mxGeometry>
        </mxCell>
        <mxCell id="_2BZUjgcxiHqNRs6hB5g-24" value="Weight decimal(5,2)" style="shape=partialRectangle;overflow=hidden;connectable=0;fillColor=none;top=0;left=0;bottom=0;right=0;align=left;spacingLeft=6;" vertex="1" parent="_2BZUjgcxiHqNRs6hB5g-22">
          <mxGeometry x="30" width="220" height="30" as="geometry">
            <mxRectangle width="220" height="30" as="alternateBounds" />
          </mxGeometry>
        </mxCell>
        <mxCell id="_2BZUjgcxiHqNRs6hB5g-25" value="" style="shape=partialRectangle;collapsible=0;dropTarget=0;pointerEvents=0;fillColor=none;points=[[0,0.5],[1,0.5]];portConstraint=eastwest;top=0;left=0;right=0;bottom=0;" vertex="1" parent="C-vyLk0tnHw3VtMMgP7b-23">
          <mxGeometry y="240" width="250" height="30" as="geometry" />
        </mxCell>
        <mxCell id="_2BZUjgcxiHqNRs6hB5g-26" value="" style="shape=partialRectangle;overflow=hidden;connectable=0;fillColor=none;top=0;left=0;bottom=0;right=0;" vertex="1" parent="_2BZUjgcxiHqNRs6hB5g-25">
          <mxGeometry width="30" height="30" as="geometry">
            <mxRectangle width="30" height="30" as="alternateBounds" />
          </mxGeometry>
        </mxCell>
        <mxCell id="_2BZUjgcxiHqNRs6hB5g-27" value="Contact varchar(20)" style="shape=partialRectangle;overflow=hidden;connectable=0;fillColor=none;top=0;left=0;bottom=0;right=0;align=left;spacingLeft=6;" vertex="1" parent="_2BZUjgcxiHqNRs6hB5g-25">
          <mxGeometry x="30" width="220" height="30" as="geometry">
            <mxRectangle width="220" height="30" as="alternateBounds" />
          </mxGeometry>
        </mxCell>
        <mxCell id="_2BZUjgcxiHqNRs6hB5g-28" value="" style="shape=partialRectangle;collapsible=0;dropTarget=0;pointerEvents=0;fillColor=none;points=[[0,0.5],[1,0.5]];portConstraint=eastwest;top=0;left=0;right=0;bottom=0;" vertex="1" parent="C-vyLk0tnHw3VtMMgP7b-23">
          <mxGeometry y="270" width="250" height="30" as="geometry" />
        </mxCell>
        <mxCell id="_2BZUjgcxiHqNRs6hB5g-29" value="" style="shape=partialRectangle;overflow=hidden;connectable=0;fillColor=none;top=0;left=0;bottom=0;right=0;" vertex="1" parent="_2BZUjgcxiHqNRs6hB5g-28">
          <mxGeometry width="30" height="30" as="geometry">
            <mxRectangle width="30" height="30" as="alternateBounds" />
          </mxGeometry>
        </mxCell>
        <mxCell id="_2BZUjgcxiHqNRs6hB5g-30" value="Gender varchar(25)" style="shape=partialRectangle;overflow=hidden;connectable=0;fillColor=none;top=0;left=0;bottom=0;right=0;align=left;spacingLeft=6;" vertex="1" parent="_2BZUjgcxiHqNRs6hB5g-28">
          <mxGeometry x="30" width="220" height="30" as="geometry">
            <mxRectangle width="220" height="30" as="alternateBounds" />
          </mxGeometry>
        </mxCell>
        <mxCell id="_2BZUjgcxiHqNRs6hB5g-31" value="" style="shape=partialRectangle;collapsible=0;dropTarget=0;pointerEvents=0;fillColor=none;points=[[0,0.5],[1,0.5]];portConstraint=eastwest;top=0;left=0;right=0;bottom=0;" vertex="1" parent="C-vyLk0tnHw3VtMMgP7b-23">
          <mxGeometry y="300" width="250" height="30" as="geometry" />
        </mxCell>
        <mxCell id="_2BZUjgcxiHqNRs6hB5g-32" value="" style="shape=partialRectangle;overflow=hidden;connectable=0;fillColor=none;top=0;left=0;bottom=0;right=0;" vertex="1" parent="_2BZUjgcxiHqNRs6hB5g-31">
          <mxGeometry width="30" height="30" as="geometry">
            <mxRectangle width="30" height="30" as="alternateBounds" />
          </mxGeometry>
        </mxCell>
        <mxCell id="_2BZUjgcxiHqNRs6hB5g-33" value="amount decimal(10,2)" style="shape=partialRectangle;overflow=hidden;connectable=0;fillColor=none;top=0;left=0;bottom=0;right=0;align=left;spacingLeft=6;" vertex="1" parent="_2BZUjgcxiHqNRs6hB5g-31">
          <mxGeometry x="30" width="220" height="30" as="geometry">
            <mxRectangle width="220" height="30" as="alternateBounds" />
          </mxGeometry>
        </mxCell>
        <mxCell id="C-vyLk0tnHw3VtMMgP7b-27" value="" style="shape=partialRectangle;collapsible=0;dropTarget=0;pointerEvents=0;fillColor=none;points=[[0,0.5],[1,0.5]];portConstraint=eastwest;top=0;left=0;right=0;bottom=0;" parent="C-vyLk0tnHw3VtMMgP7b-23" vertex="1">
          <mxGeometry y="330" width="250" height="30" as="geometry" />
        </mxCell>
        <mxCell id="C-vyLk0tnHw3VtMMgP7b-28" value="" style="shape=partialRectangle;overflow=hidden;connectable=0;fillColor=none;top=0;left=0;bottom=0;right=0;" parent="C-vyLk0tnHw3VtMMgP7b-27" vertex="1">
          <mxGeometry width="30" height="30" as="geometry">
            <mxRectangle width="30" height="30" as="alternateBounds" />
          </mxGeometry>
        </mxCell>
        <mxCell id="C-vyLk0tnHw3VtMMgP7b-29" value="status varchar(50)" style="shape=partialRectangle;overflow=hidden;connectable=0;fillColor=none;top=0;left=0;bottom=0;right=0;align=left;spacingLeft=6;" parent="C-vyLk0tnHw3VtMMgP7b-27" vertex="1">
          <mxGeometry x="30" width="220" height="30" as="geometry">
            <mxRectangle width="220" height="30" as="alternateBounds" />
          </mxGeometry>
        </mxCell>
        <mxCell id="_2BZUjgcxiHqNRs6hB5g-34" value="members_tbl" style="shape=table;startSize=30;container=1;collapsible=1;childLayout=tableLayout;fixedRows=1;rowLines=0;fontStyle=1;align=center;resizeLast=1;fillStyle=solid;" vertex="1" parent="1">
          <mxGeometry x="1025" y="17" width="250" height="340" as="geometry" />
        </mxCell>
        <mxCell id="_2BZUjgcxiHqNRs6hB5g-35" value="" style="shape=partialRectangle;collapsible=0;dropTarget=0;pointerEvents=0;fillColor=none;points=[[0,0.5],[1,0.5]];portConstraint=eastwest;top=0;left=0;right=0;bottom=1;" vertex="1" parent="_2BZUjgcxiHqNRs6hB5g-34">
          <mxGeometry y="30" width="250" height="30" as="geometry" />
        </mxCell>
        <mxCell id="_2BZUjgcxiHqNRs6hB5g-36" value="PK" style="shape=partialRectangle;overflow=hidden;connectable=0;fillColor=none;top=0;left=0;bottom=0;right=0;fontStyle=1;" vertex="1" parent="_2BZUjgcxiHqNRs6hB5g-35">
          <mxGeometry width="30" height="30" as="geometry">
            <mxRectangle width="30" height="30" as="alternateBounds" />
          </mxGeometry>
        </mxCell>
        <mxCell id="_2BZUjgcxiHqNRs6hB5g-37" value="id int AI PK" style="shape=partialRectangle;overflow=hidden;connectable=0;fillColor=none;top=0;left=0;bottom=0;right=0;align=left;spacingLeft=6;fontStyle=5;" vertex="1" parent="_2BZUjgcxiHqNRs6hB5g-35">
          <mxGeometry x="30" width="220" height="30" as="geometry">
            <mxRectangle width="220" height="30" as="alternateBounds" />
          </mxGeometry>
        </mxCell>
        <mxCell id="_2BZUjgcxiHqNRs6hB5g-38" value="" style="shape=partialRectangle;collapsible=0;dropTarget=0;pointerEvents=0;fillColor=none;points=[[0,0.5],[1,0.5]];portConstraint=eastwest;top=0;left=0;right=0;bottom=0;" vertex="1" parent="_2BZUjgcxiHqNRs6hB5g-34">
          <mxGeometry y="60" width="250" height="30" as="geometry" />
        </mxCell>
        <mxCell id="_2BZUjgcxiHqNRs6hB5g-39" value="" style="shape=partialRectangle;overflow=hidden;connectable=0;fillColor=none;top=0;left=0;bottom=0;right=0;" vertex="1" parent="_2BZUjgcxiHqNRs6hB5g-38">
          <mxGeometry width="30" height="30" as="geometry">
            <mxRectangle width="30" height="30" as="alternateBounds" />
          </mxGeometry>
        </mxCell>
        <mxCell id="_2BZUjgcxiHqNRs6hB5g-40" value="fname varchar(255)" style="shape=partialRectangle;overflow=hidden;connectable=0;fillColor=none;top=0;left=0;bottom=0;right=0;align=left;spacingLeft=6;" vertex="1" parent="_2BZUjgcxiHqNRs6hB5g-38">
          <mxGeometry x="30" width="220" height="30" as="geometry">
            <mxRectangle width="220" height="30" as="alternateBounds" />
          </mxGeometry>
        </mxCell>
        <mxCell id="_2BZUjgcxiHqNRs6hB5g-41" value="" style="shape=partialRectangle;collapsible=0;dropTarget=0;pointerEvents=0;fillColor=none;points=[[0,0.5],[1,0.5]];portConstraint=eastwest;top=0;left=0;right=0;bottom=0;" vertex="1" parent="_2BZUjgcxiHqNRs6hB5g-34">
          <mxGeometry y="90" width="250" height="30" as="geometry" />
        </mxCell>
        <mxCell id="_2BZUjgcxiHqNRs6hB5g-42" value="" style="shape=partialRectangle;overflow=hidden;connectable=0;fillColor=none;top=0;left=0;bottom=0;right=0;" vertex="1" parent="_2BZUjgcxiHqNRs6hB5g-41">
          <mxGeometry width="30" height="30" as="geometry">
            <mxRectangle width="30" height="30" as="alternateBounds" />
          </mxGeometry>
        </mxCell>
        <mxCell id="_2BZUjgcxiHqNRs6hB5g-43" value="lname varchar(255)" style="shape=partialRectangle;overflow=hidden;connectable=0;fillColor=none;top=0;left=0;bottom=0;right=0;align=left;spacingLeft=6;" vertex="1" parent="_2BZUjgcxiHqNRs6hB5g-41">
          <mxGeometry x="30" width="220" height="30" as="geometry">
            <mxRectangle width="220" height="30" as="alternateBounds" />
          </mxGeometry>
        </mxCell>
        <mxCell id="_2BZUjgcxiHqNRs6hB5g-44" value="" style="shape=partialRectangle;collapsible=0;dropTarget=0;pointerEvents=0;fillColor=none;points=[[0,0.5],[1,0.5]];portConstraint=eastwest;top=0;left=0;right=0;bottom=0;" vertex="1" parent="_2BZUjgcxiHqNRs6hB5g-34">
          <mxGeometry y="120" width="250" height="30" as="geometry" />
        </mxCell>
        <mxCell id="_2BZUjgcxiHqNRs6hB5g-45" value="" style="shape=partialRectangle;overflow=hidden;connectable=0;fillColor=none;top=0;left=0;bottom=0;right=0;" vertex="1" parent="_2BZUjgcxiHqNRs6hB5g-44">
          <mxGeometry width="30" height="30" as="geometry">
            <mxRectangle width="30" height="30" as="alternateBounds" />
          </mxGeometry>
        </mxCell>
        <mxCell id="_2BZUjgcxiHqNRs6hB5g-46" value="uname varchar(255)" style="shape=partialRectangle;overflow=hidden;connectable=0;fillColor=none;top=0;left=0;bottom=0;right=0;align=left;spacingLeft=6;" vertex="1" parent="_2BZUjgcxiHqNRs6hB5g-44">
          <mxGeometry x="30" width="220" height="30" as="geometry">
            <mxRectangle width="220" height="30" as="alternateBounds" />
          </mxGeometry>
        </mxCell>
        <mxCell id="_2BZUjgcxiHqNRs6hB5g-47" value="" style="shape=partialRectangle;collapsible=0;dropTarget=0;pointerEvents=0;fillColor=none;points=[[0,0.5],[1,0.5]];portConstraint=eastwest;top=0;left=0;right=0;bottom=0;" vertex="1" parent="_2BZUjgcxiHqNRs6hB5g-34">
          <mxGeometry y="150" width="250" height="30" as="geometry" />
        </mxCell>
        <mxCell id="_2BZUjgcxiHqNRs6hB5g-48" value="" style="shape=partialRectangle;overflow=hidden;connectable=0;fillColor=none;top=0;left=0;bottom=0;right=0;" vertex="1" parent="_2BZUjgcxiHqNRs6hB5g-47">
          <mxGeometry width="30" height="30" as="geometry">
            <mxRectangle width="30" height="30" as="alternateBounds" />
          </mxGeometry>
        </mxCell>
        <mxCell id="_2BZUjgcxiHqNRs6hB5g-49" value="city varchar(255)" style="shape=partialRectangle;overflow=hidden;connectable=0;fillColor=none;top=0;left=0;bottom=0;right=0;align=left;spacingLeft=6;" vertex="1" parent="_2BZUjgcxiHqNRs6hB5g-47">
          <mxGeometry x="30" width="220" height="30" as="geometry">
            <mxRectangle width="220" height="30" as="alternateBounds" />
          </mxGeometry>
        </mxCell>
        <mxCell id="_2BZUjgcxiHqNRs6hB5g-53" value="" style="shape=partialRectangle;collapsible=0;dropTarget=0;pointerEvents=0;fillColor=none;points=[[0,0.5],[1,0.5]];portConstraint=eastwest;top=0;left=0;right=0;bottom=0;" vertex="1" parent="_2BZUjgcxiHqNRs6hB5g-34">
          <mxGeometry y="180" width="250" height="30" as="geometry" />
        </mxCell>
        <mxCell id="_2BZUjgcxiHqNRs6hB5g-54" value="" style="shape=partialRectangle;overflow=hidden;connectable=0;fillColor=none;top=0;left=0;bottom=0;right=0;" vertex="1" parent="_2BZUjgcxiHqNRs6hB5g-53">
          <mxGeometry width="30" height="30" as="geometry">
            <mxRectangle width="30" height="30" as="alternateBounds" />
          </mxGeometry>
        </mxCell>
        <mxCell id="_2BZUjgcxiHqNRs6hB5g-55" value="weight decimal(5,2)" style="shape=partialRectangle;overflow=hidden;connectable=0;fillColor=none;top=0;left=0;bottom=0;right=0;align=left;spacingLeft=6;" vertex="1" parent="_2BZUjgcxiHqNRs6hB5g-53">
          <mxGeometry x="30" width="220" height="30" as="geometry">
            <mxRectangle width="220" height="30" as="alternateBounds" />
          </mxGeometry>
        </mxCell>
        <mxCell id="_2BZUjgcxiHqNRs6hB5g-68" value="" style="shape=partialRectangle;collapsible=0;dropTarget=0;pointerEvents=0;fillColor=none;points=[[0,0.5],[1,0.5]];portConstraint=eastwest;top=0;left=0;right=0;bottom=0;" vertex="1" parent="_2BZUjgcxiHqNRs6hB5g-34">
          <mxGeometry y="210" width="250" height="30" as="geometry" />
        </mxCell>
        <mxCell id="_2BZUjgcxiHqNRs6hB5g-69" value="" style="shape=partialRectangle;overflow=hidden;connectable=0;fillColor=none;top=0;left=0;bottom=0;right=0;" vertex="1" parent="_2BZUjgcxiHqNRs6hB5g-68">
          <mxGeometry width="30" height="30" as="geometry">
            <mxRectangle width="30" height="30" as="alternateBounds" />
          </mxGeometry>
        </mxCell>
        <mxCell id="_2BZUjgcxiHqNRs6hB5g-70" value="gender varchar(255)" style="shape=partialRectangle;overflow=hidden;connectable=0;fillColor=none;top=0;left=0;bottom=0;right=0;align=left;spacingLeft=6;" vertex="1" parent="_2BZUjgcxiHqNRs6hB5g-68">
          <mxGeometry x="30" width="220" height="30" as="geometry">
            <mxRectangle width="220" height="30" as="alternateBounds" />
          </mxGeometry>
        </mxCell>
        <mxCell id="_2BZUjgcxiHqNRs6hB5g-59" value="" style="shape=partialRectangle;collapsible=0;dropTarget=0;pointerEvents=0;fillColor=none;points=[[0,0.5],[1,0.5]];portConstraint=eastwest;top=0;left=0;right=0;bottom=0;" vertex="1" parent="_2BZUjgcxiHqNRs6hB5g-34">
          <mxGeometry y="240" width="250" height="30" as="geometry" />
        </mxCell>
        <mxCell id="_2BZUjgcxiHqNRs6hB5g-60" value="" style="shape=partialRectangle;overflow=hidden;connectable=0;fillColor=none;top=0;left=0;bottom=0;right=0;" vertex="1" parent="_2BZUjgcxiHqNRs6hB5g-59">
          <mxGeometry width="30" height="30" as="geometry">
            <mxRectangle width="30" height="30" as="alternateBounds" />
          </mxGeometry>
        </mxCell>
        <mxCell id="_2BZUjgcxiHqNRs6hB5g-61" value="contact varchar(20)" style="shape=partialRectangle;overflow=hidden;connectable=0;fillColor=none;top=0;left=0;bottom=0;right=0;align=left;spacingLeft=6;" vertex="1" parent="_2BZUjgcxiHqNRs6hB5g-59">
          <mxGeometry x="30" width="220" height="30" as="geometry">
            <mxRectangle width="220" height="30" as="alternateBounds" />
          </mxGeometry>
        </mxCell>
        <mxCell id="_2BZUjgcxiHqNRs6hB5g-62" value="" style="shape=partialRectangle;collapsible=0;dropTarget=0;pointerEvents=0;fillColor=none;points=[[0,0.5],[1,0.5]];portConstraint=eastwest;top=0;left=0;right=0;bottom=0;" vertex="1" parent="_2BZUjgcxiHqNRs6hB5g-34">
          <mxGeometry y="270" width="250" height="30" as="geometry" />
        </mxCell>
        <mxCell id="_2BZUjgcxiHqNRs6hB5g-63" value="" style="shape=partialRectangle;overflow=hidden;connectable=0;fillColor=none;top=0;left=0;bottom=0;right=0;" vertex="1" parent="_2BZUjgcxiHqNRs6hB5g-62">
          <mxGeometry width="30" height="30" as="geometry">
            <mxRectangle width="30" height="30" as="alternateBounds" />
          </mxGeometry>
        </mxCell>
        <mxCell id="_2BZUjgcxiHqNRs6hB5g-64" value="pwd varchar(255)" style="shape=partialRectangle;overflow=hidden;connectable=0;fillColor=none;top=0;left=0;bottom=0;right=0;align=left;spacingLeft=6;" vertex="1" parent="_2BZUjgcxiHqNRs6hB5g-62">
          <mxGeometry x="30" width="220" height="30" as="geometry">
            <mxRectangle width="220" height="30" as="alternateBounds" />
          </mxGeometry>
        </mxCell>
        <mxCell id="_2BZUjgcxiHqNRs6hB5g-65" value="" style="shape=partialRectangle;collapsible=0;dropTarget=0;pointerEvents=0;fillColor=none;points=[[0,0.5],[1,0.5]];portConstraint=eastwest;top=0;left=0;right=0;bottom=0;" vertex="1" parent="_2BZUjgcxiHqNRs6hB5g-34">
          <mxGeometry y="300" width="250" height="30" as="geometry" />
        </mxCell>
        <mxCell id="_2BZUjgcxiHqNRs6hB5g-66" value="" style="shape=partialRectangle;overflow=hidden;connectable=0;fillColor=none;top=0;left=0;bottom=0;right=0;" vertex="1" parent="_2BZUjgcxiHqNRs6hB5g-65">
          <mxGeometry width="30" height="30" as="geometry">
            <mxRectangle width="30" height="30" as="alternateBounds" />
          </mxGeometry>
        </mxCell>
        <mxCell id="_2BZUjgcxiHqNRs6hB5g-67" value="last_login varchar(19)" style="shape=partialRectangle;overflow=hidden;connectable=0;fillColor=none;top=0;left=0;bottom=0;right=0;align=left;spacingLeft=6;" vertex="1" parent="_2BZUjgcxiHqNRs6hB5g-65">
          <mxGeometry x="30" width="220" height="30" as="geometry">
            <mxRectangle width="220" height="30" as="alternateBounds" />
          </mxGeometry>
        </mxCell>
        <mxCell id="_2BZUjgcxiHqNRs6hB5g-71" value="nutritionist_files" style="shape=table;startSize=30;container=1;collapsible=1;childLayout=tableLayout;fixedRows=1;rowLines=0;fontStyle=1;align=center;resizeLast=1;fillStyle=solid;" vertex="1" parent="1">
          <mxGeometry x="499" y="64" width="269" height="261" as="geometry" />
        </mxCell>
        <mxCell id="_2BZUjgcxiHqNRs6hB5g-72" value="" style="shape=partialRectangle;collapsible=0;dropTarget=0;pointerEvents=0;fillColor=none;points=[[0,0.5],[1,0.5]];portConstraint=eastwest;top=0;left=0;right=0;bottom=1;" vertex="1" parent="_2BZUjgcxiHqNRs6hB5g-71">
          <mxGeometry y="30" width="269" height="30" as="geometry" />
        </mxCell>
        <mxCell id="_2BZUjgcxiHqNRs6hB5g-73" value="PK" style="shape=partialRectangle;overflow=hidden;connectable=0;fillColor=none;top=0;left=0;bottom=0;right=0;fontStyle=1;" vertex="1" parent="_2BZUjgcxiHqNRs6hB5g-72">
          <mxGeometry width="44.274557674632376" height="30" as="geometry">
            <mxRectangle width="44.274557674632376" height="30" as="alternateBounds" />
          </mxGeometry>
        </mxCell>
        <mxCell id="_2BZUjgcxiHqNRs6hB5g-74" value="id int AI PK" style="shape=partialRectangle;overflow=hidden;connectable=0;fillColor=none;top=0;left=0;bottom=0;right=0;align=left;spacingLeft=6;fontStyle=5;" vertex="1" parent="_2BZUjgcxiHqNRs6hB5g-72">
          <mxGeometry x="44.274557674632376" width="224.72544232536762" height="30" as="geometry">
            <mxRectangle width="224.72544232536762" height="30" as="alternateBounds" />
          </mxGeometry>
        </mxCell>
        <mxCell id="_2BZUjgcxiHqNRs6hB5g-75" value="" style="shape=partialRectangle;collapsible=0;dropTarget=0;pointerEvents=0;fillColor=none;points=[[0,0.5],[1,0.5]];portConstraint=eastwest;top=0;left=0;right=0;bottom=0;" vertex="1" parent="_2BZUjgcxiHqNRs6hB5g-71">
          <mxGeometry y="60" width="269" height="35" as="geometry" />
        </mxCell>
        <mxCell id="_2BZUjgcxiHqNRs6hB5g-76" value="" style="shape=partialRectangle;overflow=hidden;connectable=0;fillColor=none;top=0;left=0;bottom=0;right=0;" vertex="1" parent="_2BZUjgcxiHqNRs6hB5g-75">
          <mxGeometry width="44.274557674632376" height="35" as="geometry">
            <mxRectangle width="44.274557674632376" height="35" as="alternateBounds" />
          </mxGeometry>
        </mxCell>
        <mxCell id="_2BZUjgcxiHqNRs6hB5g-77" value="name varchar(255)" style="shape=partialRectangle;overflow=hidden;connectable=0;fillColor=none;top=0;left=0;bottom=0;right=0;align=left;spacingLeft=6;" vertex="1" parent="_2BZUjgcxiHqNRs6hB5g-75">
          <mxGeometry x="44.274557674632376" width="224.72544232536762" height="35" as="geometry">
            <mxRectangle width="224.72544232536762" height="35" as="alternateBounds" />
          </mxGeometry>
        </mxCell>
        <mxCell id="_2BZUjgcxiHqNRs6hB5g-78" value="" style="shape=partialRectangle;collapsible=0;dropTarget=0;pointerEvents=0;fillColor=none;points=[[0,0.5],[1,0.5]];portConstraint=eastwest;top=0;left=0;right=0;bottom=0;" vertex="1" parent="_2BZUjgcxiHqNRs6hB5g-71">
          <mxGeometry y="95" width="269" height="30" as="geometry" />
        </mxCell>
        <mxCell id="_2BZUjgcxiHqNRs6hB5g-79" value="" style="shape=partialRectangle;overflow=hidden;connectable=0;fillColor=none;top=0;left=0;bottom=0;right=0;" vertex="1" parent="_2BZUjgcxiHqNRs6hB5g-78">
          <mxGeometry width="44.274557674632376" height="30" as="geometry">
            <mxRectangle width="44.274557674632376" height="30" as="alternateBounds" />
          </mxGeometry>
        </mxCell>
        <mxCell id="_2BZUjgcxiHqNRs6hB5g-80" value="type varchar(500)" style="shape=partialRectangle;overflow=hidden;connectable=0;fillColor=none;top=0;left=0;bottom=0;right=0;align=left;spacingLeft=6;" vertex="1" parent="_2BZUjgcxiHqNRs6hB5g-78">
          <mxGeometry x="44.274557674632376" width="224.72544232536762" height="30" as="geometry">
            <mxRectangle width="224.72544232536762" height="30" as="alternateBounds" />
          </mxGeometry>
        </mxCell>
        <mxCell id="_2BZUjgcxiHqNRs6hB5g-81" value="" style="shape=partialRectangle;collapsible=0;dropTarget=0;pointerEvents=0;fillColor=none;points=[[0,0.5],[1,0.5]];portConstraint=eastwest;top=0;left=0;right=0;bottom=0;" vertex="1" parent="_2BZUjgcxiHqNRs6hB5g-71">
          <mxGeometry y="125" width="269" height="33" as="geometry" />
        </mxCell>
        <mxCell id="_2BZUjgcxiHqNRs6hB5g-82" value="" style="shape=partialRectangle;overflow=hidden;connectable=0;fillColor=none;top=0;left=0;bottom=0;right=0;" vertex="1" parent="_2BZUjgcxiHqNRs6hB5g-81">
          <mxGeometry width="44.274557674632376" height="33" as="geometry">
            <mxRectangle width="44.274557674632376" height="33" as="alternateBounds" />
          </mxGeometry>
        </mxCell>
        <mxCell id="_2BZUjgcxiHqNRs6hB5g-83" value="size int" style="shape=partialRectangle;overflow=hidden;connectable=0;fillColor=none;top=0;left=0;bottom=0;right=0;align=left;spacingLeft=6;" vertex="1" parent="_2BZUjgcxiHqNRs6hB5g-81">
          <mxGeometry x="44.274557674632376" width="224.72544232536762" height="33" as="geometry">
            <mxRectangle width="224.72544232536762" height="33" as="alternateBounds" />
          </mxGeometry>
        </mxCell>
        <mxCell id="_2BZUjgcxiHqNRs6hB5g-84" value="" style="shape=partialRectangle;collapsible=0;dropTarget=0;pointerEvents=0;fillColor=none;points=[[0,0.5],[1,0.5]];portConstraint=eastwest;top=0;left=0;right=0;bottom=0;" vertex="1" parent="_2BZUjgcxiHqNRs6hB5g-71">
          <mxGeometry y="158" width="269" height="30" as="geometry" />
        </mxCell>
        <mxCell id="_2BZUjgcxiHqNRs6hB5g-85" value="" style="shape=partialRectangle;overflow=hidden;connectable=0;fillColor=none;top=0;left=0;bottom=0;right=0;" vertex="1" parent="_2BZUjgcxiHqNRs6hB5g-84">
          <mxGeometry width="44.274557674632376" height="30" as="geometry">
            <mxRectangle width="44.274557674632376" height="30" as="alternateBounds" />
          </mxGeometry>
        </mxCell>
        <mxCell id="_2BZUjgcxiHqNRs6hB5g-86" value="content longblob" style="shape=partialRectangle;overflow=hidden;connectable=0;fillColor=none;top=0;left=0;bottom=0;right=0;align=left;spacingLeft=6;" vertex="1" parent="_2BZUjgcxiHqNRs6hB5g-84">
          <mxGeometry x="44.274557674632376" width="224.72544232536762" height="30" as="geometry">
            <mxRectangle width="224.72544232536762" height="30" as="alternateBounds" />
          </mxGeometry>
        </mxCell>
        <mxCell id="_2BZUjgcxiHqNRs6hB5g-105" value="" style="shape=partialRectangle;collapsible=0;dropTarget=0;pointerEvents=0;fillColor=none;points=[[0,0.5],[1,0.5]];portConstraint=eastwest;top=0;left=0;right=0;bottom=0;" vertex="1" parent="_2BZUjgcxiHqNRs6hB5g-71">
          <mxGeometry y="188" width="269" height="30" as="geometry" />
        </mxCell>
        <mxCell id="_2BZUjgcxiHqNRs6hB5g-106" value="" style="shape=partialRectangle;overflow=hidden;connectable=0;fillColor=none;top=0;left=0;bottom=0;right=0;" vertex="1" parent="_2BZUjgcxiHqNRs6hB5g-105">
          <mxGeometry width="44.274557674632376" height="30" as="geometry">
            <mxRectangle width="44.274557674632376" height="30" as="alternateBounds" />
          </mxGeometry>
        </mxCell>
        <mxCell id="_2BZUjgcxiHqNRs6hB5g-107" value="first_name varchar(255)" style="shape=partialRectangle;overflow=hidden;connectable=0;fillColor=none;top=0;left=0;bottom=0;right=0;align=left;spacingLeft=6;" vertex="1" parent="_2BZUjgcxiHqNRs6hB5g-105">
          <mxGeometry x="44.274557674632376" width="224.72544232536762" height="30" as="geometry">
            <mxRectangle width="224.72544232536762" height="30" as="alternateBounds" />
          </mxGeometry>
        </mxCell>
        <mxCell id="_2BZUjgcxiHqNRs6hB5g-87" value="" style="shape=partialRectangle;collapsible=0;dropTarget=0;pointerEvents=0;fillColor=none;points=[[0,0.5],[1,0.5]];portConstraint=eastwest;top=0;left=0;right=0;bottom=0;" vertex="1" parent="_2BZUjgcxiHqNRs6hB5g-71">
          <mxGeometry y="218" width="269" height="43" as="geometry" />
        </mxCell>
        <mxCell id="_2BZUjgcxiHqNRs6hB5g-88" value="" style="shape=partialRectangle;overflow=hidden;connectable=0;fillColor=none;top=0;left=0;bottom=0;right=0;" vertex="1" parent="_2BZUjgcxiHqNRs6hB5g-87">
          <mxGeometry width="44.274557674632376" height="43" as="geometry">
            <mxRectangle width="44.274557674632376" height="43" as="alternateBounds" />
          </mxGeometry>
        </mxCell>
        <mxCell id="_2BZUjgcxiHqNRs6hB5g-89" value="last_name varchar(255)" style="shape=partialRectangle;overflow=hidden;connectable=0;fillColor=none;top=0;left=0;bottom=0;right=0;align=left;spacingLeft=6;" vertex="1" parent="_2BZUjgcxiHqNRs6hB5g-87">
          <mxGeometry x="44.274557674632376" width="224.72544232536762" height="43" as="geometry">
            <mxRectangle width="224.72544232536762" height="43" as="alternateBounds" />
          </mxGeometry>
        </mxCell>
        <mxCell id="_2BZUjgcxiHqNRs6hB5g-128" value="nutritionistapplicants" style="shape=table;startSize=30;container=1;collapsible=1;childLayout=tableLayout;fixedRows=1;rowLines=0;fontStyle=1;align=center;resizeLast=1;fillStyle=solid;" vertex="1" parent="1">
          <mxGeometry x="126" y="607" width="269" height="502.3921329273901" as="geometry" />
        </mxCell>
        <mxCell id="_2BZUjgcxiHqNRs6hB5g-129" value="" style="shape=partialRectangle;collapsible=0;dropTarget=0;pointerEvents=0;fillColor=none;points=[[0,0.5],[1,0.5]];portConstraint=eastwest;top=0;left=0;right=0;bottom=1;" vertex="1" parent="_2BZUjgcxiHqNRs6hB5g-128">
          <mxGeometry y="30" width="269" height="30" as="geometry" />
        </mxCell>
        <mxCell id="_2BZUjgcxiHqNRs6hB5g-130" value="PK" style="shape=partialRectangle;overflow=hidden;connectable=0;fillColor=none;top=0;left=0;bottom=0;right=0;fontStyle=1;" vertex="1" parent="_2BZUjgcxiHqNRs6hB5g-129">
          <mxGeometry width="44.274557674632376" height="30" as="geometry">
            <mxRectangle width="44.274557674632376" height="30" as="alternateBounds" />
          </mxGeometry>
        </mxCell>
        <mxCell id="_2BZUjgcxiHqNRs6hB5g-131" value="Transaction_id int AI PK" style="shape=partialRectangle;overflow=hidden;connectable=0;fillColor=none;top=0;left=0;bottom=0;right=0;align=left;spacingLeft=6;fontStyle=5;" vertex="1" parent="_2BZUjgcxiHqNRs6hB5g-129">
          <mxGeometry x="44.274557674632376" width="224.72544232536762" height="30" as="geometry">
            <mxRectangle width="224.72544232536762" height="30" as="alternateBounds" />
          </mxGeometry>
        </mxCell>
        <mxCell id="_2BZUjgcxiHqNRs6hB5g-151" value="" style="shape=partialRectangle;collapsible=0;dropTarget=0;pointerEvents=0;fillColor=none;points=[[0,0.5],[1,0.5]];portConstraint=eastwest;top=0;left=0;right=0;bottom=0;" vertex="1" parent="_2BZUjgcxiHqNRs6hB5g-128">
          <mxGeometry y="60" width="269" height="35" as="geometry" />
        </mxCell>
        <mxCell id="_2BZUjgcxiHqNRs6hB5g-152" value="" style="shape=partialRectangle;overflow=hidden;connectable=0;fillColor=none;top=0;left=0;bottom=0;right=0;" vertex="1" parent="_2BZUjgcxiHqNRs6hB5g-151">
          <mxGeometry width="44.274557674632376" height="35" as="geometry">
            <mxRectangle width="44.274557674632376" height="35" as="alternateBounds" />
          </mxGeometry>
        </mxCell>
        <mxCell id="_2BZUjgcxiHqNRs6hB5g-153" value="Nutritionist&#39;s First Name varchar(50)" style="shape=partialRectangle;overflow=hidden;connectable=0;fillColor=none;top=0;left=0;bottom=0;right=0;align=left;spacingLeft=6;" vertex="1" parent="_2BZUjgcxiHqNRs6hB5g-151">
          <mxGeometry x="44.274557674632376" width="224.72544232536762" height="35" as="geometry">
            <mxRectangle width="224.72544232536762" height="35" as="alternateBounds" />
          </mxGeometry>
        </mxCell>
        <mxCell id="_2BZUjgcxiHqNRs6hB5g-132" value="" style="shape=partialRectangle;collapsible=0;dropTarget=0;pointerEvents=0;fillColor=none;points=[[0,0.5],[1,0.5]];portConstraint=eastwest;top=0;left=0;right=0;bottom=0;" vertex="1" parent="_2BZUjgcxiHqNRs6hB5g-128">
          <mxGeometry y="95" width="269" height="35" as="geometry" />
        </mxCell>
        <mxCell id="_2BZUjgcxiHqNRs6hB5g-133" value="" style="shape=partialRectangle;overflow=hidden;connectable=0;fillColor=none;top=0;left=0;bottom=0;right=0;" vertex="1" parent="_2BZUjgcxiHqNRs6hB5g-132">
          <mxGeometry width="44.274557674632376" height="35" as="geometry">
            <mxRectangle width="44.274557674632376" height="35" as="alternateBounds" />
          </mxGeometry>
        </mxCell>
        <mxCell id="_2BZUjgcxiHqNRs6hB5g-134" value="Nutritionist&#39;s Last Name varchar(50)" style="shape=partialRectangle;overflow=hidden;connectable=0;fillColor=none;top=0;left=0;bottom=0;right=0;align=left;spacingLeft=6;" vertex="1" parent="_2BZUjgcxiHqNRs6hB5g-132">
          <mxGeometry x="44.274557674632376" width="224.72544232536762" height="35" as="geometry">
            <mxRectangle width="224.72544232536762" height="35" as="alternateBounds" />
          </mxGeometry>
        </mxCell>
        <mxCell id="_2BZUjgcxiHqNRs6hB5g-135" value="" style="shape=partialRectangle;collapsible=0;dropTarget=0;pointerEvents=0;fillColor=none;points=[[0,0.5],[1,0.5]];portConstraint=eastwest;top=0;left=0;right=0;bottom=0;" vertex="1" parent="_2BZUjgcxiHqNRs6hB5g-128">
          <mxGeometry y="130" width="269" height="30" as="geometry" />
        </mxCell>
        <mxCell id="_2BZUjgcxiHqNRs6hB5g-136" value="" style="shape=partialRectangle;overflow=hidden;connectable=0;fillColor=none;top=0;left=0;bottom=0;right=0;" vertex="1" parent="_2BZUjgcxiHqNRs6hB5g-135">
          <mxGeometry width="44.274557674632376" height="30" as="geometry">
            <mxRectangle width="44.274557674632376" height="30" as="alternateBounds" />
          </mxGeometry>
        </mxCell>
        <mxCell id="_2BZUjgcxiHqNRs6hB5g-137" value="Nutritionist Id int" style="shape=partialRectangle;overflow=hidden;connectable=0;fillColor=none;top=0;left=0;bottom=0;right=0;align=left;spacingLeft=6;" vertex="1" parent="_2BZUjgcxiHqNRs6hB5g-135">
          <mxGeometry x="44.274557674632376" width="224.72544232536762" height="30" as="geometry">
            <mxRectangle width="224.72544232536762" height="30" as="alternateBounds" />
          </mxGeometry>
        </mxCell>
        <mxCell id="_2BZUjgcxiHqNRs6hB5g-154" value="" style="shape=partialRectangle;collapsible=0;dropTarget=0;pointerEvents=0;fillColor=none;points=[[0,0.5],[1,0.5]];portConstraint=eastwest;top=0;left=0;right=0;bottom=0;" vertex="1" parent="_2BZUjgcxiHqNRs6hB5g-128">
          <mxGeometry y="160" width="269" height="33" as="geometry" />
        </mxCell>
        <mxCell id="_2BZUjgcxiHqNRs6hB5g-155" value="" style="shape=partialRectangle;overflow=hidden;connectable=0;fillColor=none;top=0;left=0;bottom=0;right=0;" vertex="1" parent="_2BZUjgcxiHqNRs6hB5g-154">
          <mxGeometry width="44.274557674632376" height="33" as="geometry">
            <mxRectangle width="44.274557674632376" height="33" as="alternateBounds" />
          </mxGeometry>
        </mxCell>
        <mxCell id="_2BZUjgcxiHqNRs6hB5g-156" value="FirstName varchar(255)" style="shape=partialRectangle;overflow=hidden;connectable=0;fillColor=none;top=0;left=0;bottom=0;right=0;align=left;spacingLeft=6;" vertex="1" parent="_2BZUjgcxiHqNRs6hB5g-154">
          <mxGeometry x="44.274557674632376" width="224.72544232536762" height="33" as="geometry">
            <mxRectangle width="224.72544232536762" height="33" as="alternateBounds" />
          </mxGeometry>
        </mxCell>
        <mxCell id="_2BZUjgcxiHqNRs6hB5g-138" value="" style="shape=partialRectangle;collapsible=0;dropTarget=0;pointerEvents=0;fillColor=none;points=[[0,0.5],[1,0.5]];portConstraint=eastwest;top=0;left=0;right=0;bottom=0;" vertex="1" parent="_2BZUjgcxiHqNRs6hB5g-128">
          <mxGeometry y="193" width="269" height="33" as="geometry" />
        </mxCell>
        <mxCell id="_2BZUjgcxiHqNRs6hB5g-139" value="" style="shape=partialRectangle;overflow=hidden;connectable=0;fillColor=none;top=0;left=0;bottom=0;right=0;" vertex="1" parent="_2BZUjgcxiHqNRs6hB5g-138">
          <mxGeometry width="44.274557674632376" height="33" as="geometry">
            <mxRectangle width="44.274557674632376" height="33" as="alternateBounds" />
          </mxGeometry>
        </mxCell>
        <mxCell id="_2BZUjgcxiHqNRs6hB5g-140" value="LastName varchar(255)" style="shape=partialRectangle;overflow=hidden;connectable=0;fillColor=none;top=0;left=0;bottom=0;right=0;align=left;spacingLeft=6;" vertex="1" parent="_2BZUjgcxiHqNRs6hB5g-138">
          <mxGeometry x="44.274557674632376" width="224.72544232536762" height="33" as="geometry">
            <mxRectangle width="224.72544232536762" height="33" as="alternateBounds" />
          </mxGeometry>
        </mxCell>
        <mxCell id="_2BZUjgcxiHqNRs6hB5g-141" value="" style="shape=partialRectangle;collapsible=0;dropTarget=0;pointerEvents=0;fillColor=none;points=[[0,0.5],[1,0.5]];portConstraint=eastwest;top=0;left=0;right=0;bottom=0;" vertex="1" parent="_2BZUjgcxiHqNRs6hB5g-128">
          <mxGeometry y="226" width="269" height="30" as="geometry" />
        </mxCell>
        <mxCell id="_2BZUjgcxiHqNRs6hB5g-142" value="" style="shape=partialRectangle;overflow=hidden;connectable=0;fillColor=none;top=0;left=0;bottom=0;right=0;" vertex="1" parent="_2BZUjgcxiHqNRs6hB5g-141">
          <mxGeometry width="44.274557674632376" height="30" as="geometry">
            <mxRectangle width="44.274557674632376" height="30" as="alternateBounds" />
          </mxGeometry>
        </mxCell>
        <mxCell id="_2BZUjgcxiHqNRs6hB5g-143" value="Weight decimal(5,2)" style="shape=partialRectangle;overflow=hidden;connectable=0;fillColor=none;top=0;left=0;bottom=0;right=0;align=left;spacingLeft=6;" vertex="1" parent="_2BZUjgcxiHqNRs6hB5g-141">
          <mxGeometry x="44.274557674632376" width="224.72544232536762" height="30" as="geometry">
            <mxRectangle width="224.72544232536762" height="30" as="alternateBounds" />
          </mxGeometry>
        </mxCell>
        <mxCell id="_2BZUjgcxiHqNRs6hB5g-144" value="" style="shape=partialRectangle;collapsible=0;dropTarget=0;pointerEvents=0;fillColor=none;points=[[0,0.5],[1,0.5]];portConstraint=eastwest;top=0;left=0;right=0;bottom=0;" vertex="1" parent="_2BZUjgcxiHqNRs6hB5g-128">
          <mxGeometry y="256" width="269" height="30" as="geometry" />
        </mxCell>
        <mxCell id="_2BZUjgcxiHqNRs6hB5g-145" value="" style="shape=partialRectangle;overflow=hidden;connectable=0;fillColor=none;top=0;left=0;bottom=0;right=0;" vertex="1" parent="_2BZUjgcxiHqNRs6hB5g-144">
          <mxGeometry width="44.274557674632376" height="30" as="geometry">
            <mxRectangle width="44.274557674632376" height="30" as="alternateBounds" />
          </mxGeometry>
        </mxCell>
        <mxCell id="_2BZUjgcxiHqNRs6hB5g-146" value="Contact varchar(20)" style="shape=partialRectangle;overflow=hidden;connectable=0;fillColor=none;top=0;left=0;bottom=0;right=0;align=left;spacingLeft=6;" vertex="1" parent="_2BZUjgcxiHqNRs6hB5g-144">
          <mxGeometry x="44.274557674632376" width="224.72544232536762" height="30" as="geometry">
            <mxRectangle width="224.72544232536762" height="30" as="alternateBounds" />
          </mxGeometry>
        </mxCell>
        <mxCell id="_2BZUjgcxiHqNRs6hB5g-157" value="" style="shape=partialRectangle;collapsible=0;dropTarget=0;pointerEvents=0;fillColor=none;points=[[0,0.5],[1,0.5]];portConstraint=eastwest;top=0;left=0;right=0;bottom=0;" vertex="1" parent="_2BZUjgcxiHqNRs6hB5g-128">
          <mxGeometry y="286" width="269" height="36" as="geometry" />
        </mxCell>
        <mxCell id="_2BZUjgcxiHqNRs6hB5g-158" value="" style="shape=partialRectangle;overflow=hidden;connectable=0;fillColor=none;top=0;left=0;bottom=0;right=0;" vertex="1" parent="_2BZUjgcxiHqNRs6hB5g-157">
          <mxGeometry width="44.274557674632376" height="36" as="geometry">
            <mxRectangle width="44.274557674632376" height="36" as="alternateBounds" />
          </mxGeometry>
        </mxCell>
        <mxCell id="_2BZUjgcxiHqNRs6hB5g-159" value="Gender varchar(10)" style="shape=partialRectangle;overflow=hidden;connectable=0;fillColor=none;top=0;left=0;bottom=0;right=0;align=left;spacingLeft=6;" vertex="1" parent="_2BZUjgcxiHqNRs6hB5g-157">
          <mxGeometry x="44.274557674632376" width="224.72544232536762" height="36" as="geometry">
            <mxRectangle width="224.72544232536762" height="36" as="alternateBounds" />
          </mxGeometry>
        </mxCell>
        <mxCell id="_2BZUjgcxiHqNRs6hB5g-160" value="" style="shape=partialRectangle;collapsible=0;dropTarget=0;pointerEvents=0;fillColor=none;points=[[0,0.5],[1,0.5]];portConstraint=eastwest;top=0;left=0;right=0;bottom=0;" vertex="1" parent="_2BZUjgcxiHqNRs6hB5g-128">
          <mxGeometry y="322" width="269" height="36" as="geometry" />
        </mxCell>
        <mxCell id="_2BZUjgcxiHqNRs6hB5g-161" value="" style="shape=partialRectangle;overflow=hidden;connectable=0;fillColor=none;top=0;left=0;bottom=0;right=0;" vertex="1" parent="_2BZUjgcxiHqNRs6hB5g-160">
          <mxGeometry width="44.274557674632376" height="36" as="geometry">
            <mxRectangle width="44.274557674632376" height="36" as="alternateBounds" />
          </mxGeometry>
        </mxCell>
        <mxCell id="_2BZUjgcxiHqNRs6hB5g-162" value="amount decimal(10,2)" style="shape=partialRectangle;overflow=hidden;connectable=0;fillColor=none;top=0;left=0;bottom=0;right=0;align=left;spacingLeft=6;" vertex="1" parent="_2BZUjgcxiHqNRs6hB5g-160">
          <mxGeometry x="44.274557674632376" width="224.72544232536762" height="36" as="geometry">
            <mxRectangle width="224.72544232536762" height="36" as="alternateBounds" />
          </mxGeometry>
        </mxCell>
        <mxCell id="_2BZUjgcxiHqNRs6hB5g-163" value="" style="shape=partialRectangle;collapsible=0;dropTarget=0;pointerEvents=0;fillColor=none;points=[[0,0.5],[1,0.5]];portConstraint=eastwest;top=0;left=0;right=0;bottom=0;" vertex="1" parent="_2BZUjgcxiHqNRs6hB5g-128">
          <mxGeometry y="358" width="269" height="36" as="geometry" />
        </mxCell>
        <mxCell id="_2BZUjgcxiHqNRs6hB5g-164" value="" style="shape=partialRectangle;overflow=hidden;connectable=0;fillColor=none;top=0;left=0;bottom=0;right=0;" vertex="1" parent="_2BZUjgcxiHqNRs6hB5g-163">
          <mxGeometry width="44.274557674632376" height="36" as="geometry">
            <mxRectangle width="44.274557674632376" height="36" as="alternateBounds" />
          </mxGeometry>
        </mxCell>
        <mxCell id="_2BZUjgcxiHqNRs6hB5g-165" value="status varchar(25)" style="shape=partialRectangle;overflow=hidden;connectable=0;fillColor=none;top=0;left=0;bottom=0;right=0;align=left;spacingLeft=6;" vertex="1" parent="_2BZUjgcxiHqNRs6hB5g-163">
          <mxGeometry x="44.274557674632376" width="224.72544232536762" height="36" as="geometry">
            <mxRectangle width="224.72544232536762" height="36" as="alternateBounds" />
          </mxGeometry>
        </mxCell>
        <mxCell id="_2BZUjgcxiHqNRs6hB5g-166" value="" style="shape=partialRectangle;collapsible=0;dropTarget=0;pointerEvents=0;fillColor=none;points=[[0,0.5],[1,0.5]];portConstraint=eastwest;top=0;left=0;right=0;bottom=0;" vertex="1" parent="_2BZUjgcxiHqNRs6hB5g-128">
          <mxGeometry y="394" width="269" height="36" as="geometry" />
        </mxCell>
        <mxCell id="_2BZUjgcxiHqNRs6hB5g-167" value="" style="shape=partialRectangle;overflow=hidden;connectable=0;fillColor=none;top=0;left=0;bottom=0;right=0;" vertex="1" parent="_2BZUjgcxiHqNRs6hB5g-166">
          <mxGeometry width="44.274557674632376" height="36" as="geometry">
            <mxRectangle width="44.274557674632376" height="36" as="alternateBounds" />
          </mxGeometry>
        </mxCell>
        <mxCell id="_2BZUjgcxiHqNRs6hB5g-168" value="name mediumblob" style="shape=partialRectangle;overflow=hidden;connectable=0;fillColor=none;top=0;left=0;bottom=0;right=0;align=left;spacingLeft=6;" vertex="1" parent="_2BZUjgcxiHqNRs6hB5g-166">
          <mxGeometry x="44.274557674632376" width="224.72544232536762" height="36" as="geometry">
            <mxRectangle width="224.72544232536762" height="36" as="alternateBounds" />
          </mxGeometry>
        </mxCell>
        <mxCell id="_2BZUjgcxiHqNRs6hB5g-169" value="" style="shape=partialRectangle;collapsible=0;dropTarget=0;pointerEvents=0;fillColor=none;points=[[0,0.5],[1,0.5]];portConstraint=eastwest;top=0;left=0;right=0;bottom=0;" vertex="1" parent="_2BZUjgcxiHqNRs6hB5g-128">
          <mxGeometry y="430" width="269" height="36" as="geometry" />
        </mxCell>
        <mxCell id="_2BZUjgcxiHqNRs6hB5g-170" value="" style="shape=partialRectangle;overflow=hidden;connectable=0;fillColor=none;top=0;left=0;bottom=0;right=0;" vertex="1" parent="_2BZUjgcxiHqNRs6hB5g-169">
          <mxGeometry width="44.274557674632376" height="36" as="geometry">
            <mxRectangle width="44.274557674632376" height="36" as="alternateBounds" />
          </mxGeometry>
        </mxCell>
        <mxCell id="_2BZUjgcxiHqNRs6hB5g-171" value="type varchar(500)" style="shape=partialRectangle;overflow=hidden;connectable=0;fillColor=none;top=0;left=0;bottom=0;right=0;align=left;spacingLeft=6;" vertex="1" parent="_2BZUjgcxiHqNRs6hB5g-169">
          <mxGeometry x="44.274557674632376" width="224.72544232536762" height="36" as="geometry">
            <mxRectangle width="224.72544232536762" height="36" as="alternateBounds" />
          </mxGeometry>
        </mxCell>
        <mxCell id="_2BZUjgcxiHqNRs6hB5g-147" value="" style="shape=partialRectangle;collapsible=0;dropTarget=0;pointerEvents=0;fillColor=none;points=[[0,0.5],[1,0.5]];portConstraint=eastwest;top=0;left=0;right=0;bottom=0;" vertex="1" parent="_2BZUjgcxiHqNRs6hB5g-128">
          <mxGeometry y="466" width="269" height="36" as="geometry" />
        </mxCell>
        <mxCell id="_2BZUjgcxiHqNRs6hB5g-148" value="" style="shape=partialRectangle;overflow=hidden;connectable=0;fillColor=none;top=0;left=0;bottom=0;right=0;" vertex="1" parent="_2BZUjgcxiHqNRs6hB5g-147">
          <mxGeometry width="44.274557674632376" height="36" as="geometry">
            <mxRectangle width="44.274557674632376" height="36" as="alternateBounds" />
          </mxGeometry>
        </mxCell>
        <mxCell id="_2BZUjgcxiHqNRs6hB5g-149" value="content longblob" style="shape=partialRectangle;overflow=hidden;connectable=0;fillColor=none;top=0;left=0;bottom=0;right=0;align=left;spacingLeft=6;" vertex="1" parent="_2BZUjgcxiHqNRs6hB5g-147">
          <mxGeometry x="44.274557674632376" width="224.72544232536762" height="36" as="geometry">
            <mxRectangle width="224.72544232536762" height="36" as="alternateBounds" />
          </mxGeometry>
        </mxCell>
        <mxCell id="_2BZUjgcxiHqNRs6hB5g-172" value="members_tbl" style="shape=table;startSize=30;container=1;collapsible=1;childLayout=tableLayout;fixedRows=1;rowLines=0;fontStyle=1;align=center;resizeLast=1;fillStyle=solid;" vertex="1" parent="1">
          <mxGeometry x="478" y="493" width="250" height="340" as="geometry" />
        </mxCell>
        <mxCell id="_2BZUjgcxiHqNRs6hB5g-173" value="" style="shape=partialRectangle;collapsible=0;dropTarget=0;pointerEvents=0;fillColor=none;points=[[0,0.5],[1,0.5]];portConstraint=eastwest;top=0;left=0;right=0;bottom=1;" vertex="1" parent="_2BZUjgcxiHqNRs6hB5g-172">
          <mxGeometry y="30" width="250" height="30" as="geometry" />
        </mxCell>
        <mxCell id="_2BZUjgcxiHqNRs6hB5g-174" value="PK" style="shape=partialRectangle;overflow=hidden;connectable=0;fillColor=none;top=0;left=0;bottom=0;right=0;fontStyle=1;" vertex="1" parent="_2BZUjgcxiHqNRs6hB5g-173">
          <mxGeometry width="30" height="30" as="geometry">
            <mxRectangle width="30" height="30" as="alternateBounds" />
          </mxGeometry>
        </mxCell>
        <mxCell id="_2BZUjgcxiHqNRs6hB5g-175" value="id int AI PK" style="shape=partialRectangle;overflow=hidden;connectable=0;fillColor=none;top=0;left=0;bottom=0;right=0;align=left;spacingLeft=6;fontStyle=5;" vertex="1" parent="_2BZUjgcxiHqNRs6hB5g-173">
          <mxGeometry x="30" width="220" height="30" as="geometry">
            <mxRectangle width="220" height="30" as="alternateBounds" />
          </mxGeometry>
        </mxCell>
        <mxCell id="_2BZUjgcxiHqNRs6hB5g-176" value="" style="shape=partialRectangle;collapsible=0;dropTarget=0;pointerEvents=0;fillColor=none;points=[[0,0.5],[1,0.5]];portConstraint=eastwest;top=0;left=0;right=0;bottom=0;" vertex="1" parent="_2BZUjgcxiHqNRs6hB5g-172">
          <mxGeometry y="60" width="250" height="30" as="geometry" />
        </mxCell>
        <mxCell id="_2BZUjgcxiHqNRs6hB5g-177" value="" style="shape=partialRectangle;overflow=hidden;connectable=0;fillColor=none;top=0;left=0;bottom=0;right=0;" vertex="1" parent="_2BZUjgcxiHqNRs6hB5g-176">
          <mxGeometry width="30" height="30" as="geometry">
            <mxRectangle width="30" height="30" as="alternateBounds" />
          </mxGeometry>
        </mxCell>
        <mxCell id="_2BZUjgcxiHqNRs6hB5g-178" value="first_name varchar(255)" style="shape=partialRectangle;overflow=hidden;connectable=0;fillColor=none;top=0;left=0;bottom=0;right=0;align=left;spacingLeft=6;" vertex="1" parent="_2BZUjgcxiHqNRs6hB5g-176">
          <mxGeometry x="30" width="220" height="30" as="geometry">
            <mxRectangle width="220" height="30" as="alternateBounds" />
          </mxGeometry>
        </mxCell>
        <mxCell id="_2BZUjgcxiHqNRs6hB5g-179" value="" style="shape=partialRectangle;collapsible=0;dropTarget=0;pointerEvents=0;fillColor=none;points=[[0,0.5],[1,0.5]];portConstraint=eastwest;top=0;left=0;right=0;bottom=0;" vertex="1" parent="_2BZUjgcxiHqNRs6hB5g-172">
          <mxGeometry y="90" width="250" height="30" as="geometry" />
        </mxCell>
        <mxCell id="_2BZUjgcxiHqNRs6hB5g-180" value="" style="shape=partialRectangle;overflow=hidden;connectable=0;fillColor=none;top=0;left=0;bottom=0;right=0;" vertex="1" parent="_2BZUjgcxiHqNRs6hB5g-179">
          <mxGeometry width="30" height="30" as="geometry">
            <mxRectangle width="30" height="30" as="alternateBounds" />
          </mxGeometry>
        </mxCell>
        <mxCell id="_2BZUjgcxiHqNRs6hB5g-181" value="last_name varchar(255)" style="shape=partialRectangle;overflow=hidden;connectable=0;fillColor=none;top=0;left=0;bottom=0;right=0;align=left;spacingLeft=6;" vertex="1" parent="_2BZUjgcxiHqNRs6hB5g-179">
          <mxGeometry x="30" width="220" height="30" as="geometry">
            <mxRectangle width="220" height="30" as="alternateBounds" />
          </mxGeometry>
        </mxCell>
        <mxCell id="_2BZUjgcxiHqNRs6hB5g-182" value="" style="shape=partialRectangle;collapsible=0;dropTarget=0;pointerEvents=0;fillColor=none;points=[[0,0.5],[1,0.5]];portConstraint=eastwest;top=0;left=0;right=0;bottom=0;" vertex="1" parent="_2BZUjgcxiHqNRs6hB5g-172">
          <mxGeometry y="120" width="250" height="30" as="geometry" />
        </mxCell>
        <mxCell id="_2BZUjgcxiHqNRs6hB5g-183" value="" style="shape=partialRectangle;overflow=hidden;connectable=0;fillColor=none;top=0;left=0;bottom=0;right=0;" vertex="1" parent="_2BZUjgcxiHqNRs6hB5g-182">
          <mxGeometry width="30" height="30" as="geometry">
            <mxRectangle width="30" height="30" as="alternateBounds" />
          </mxGeometry>
        </mxCell>
        <mxCell id="_2BZUjgcxiHqNRs6hB5g-184" value="username varchar(255)" style="shape=partialRectangle;overflow=hidden;connectable=0;fillColor=none;top=0;left=0;bottom=0;right=0;align=left;spacingLeft=6;" vertex="1" parent="_2BZUjgcxiHqNRs6hB5g-182">
          <mxGeometry x="30" width="220" height="30" as="geometry">
            <mxRectangle width="220" height="30" as="alternateBounds" />
          </mxGeometry>
        </mxCell>
        <mxCell id="_2BZUjgcxiHqNRs6hB5g-185" value="" style="shape=partialRectangle;collapsible=0;dropTarget=0;pointerEvents=0;fillColor=none;points=[[0,0.5],[1,0.5]];portConstraint=eastwest;top=0;left=0;right=0;bottom=0;" vertex="1" parent="_2BZUjgcxiHqNRs6hB5g-172">
          <mxGeometry y="150" width="250" height="30" as="geometry" />
        </mxCell>
        <mxCell id="_2BZUjgcxiHqNRs6hB5g-186" value="" style="shape=partialRectangle;overflow=hidden;connectable=0;fillColor=none;top=0;left=0;bottom=0;right=0;" vertex="1" parent="_2BZUjgcxiHqNRs6hB5g-185">
          <mxGeometry width="30" height="30" as="geometry">
            <mxRectangle width="30" height="30" as="alternateBounds" />
          </mxGeometry>
        </mxCell>
        <mxCell id="_2BZUjgcxiHqNRs6hB5g-187" value="city varchar(255)" style="shape=partialRectangle;overflow=hidden;connectable=0;fillColor=none;top=0;left=0;bottom=0;right=0;align=left;spacingLeft=6;" vertex="1" parent="_2BZUjgcxiHqNRs6hB5g-185">
          <mxGeometry x="30" width="220" height="30" as="geometry">
            <mxRectangle width="220" height="30" as="alternateBounds" />
          </mxGeometry>
        </mxCell>
        <mxCell id="_2BZUjgcxiHqNRs6hB5g-188" value="" style="shape=partialRectangle;collapsible=0;dropTarget=0;pointerEvents=0;fillColor=none;points=[[0,0.5],[1,0.5]];portConstraint=eastwest;top=0;left=0;right=0;bottom=0;" vertex="1" parent="_2BZUjgcxiHqNRs6hB5g-172">
          <mxGeometry y="180" width="250" height="30" as="geometry" />
        </mxCell>
        <mxCell id="_2BZUjgcxiHqNRs6hB5g-189" value="" style="shape=partialRectangle;overflow=hidden;connectable=0;fillColor=none;top=0;left=0;bottom=0;right=0;" vertex="1" parent="_2BZUjgcxiHqNRs6hB5g-188">
          <mxGeometry width="30" height="30" as="geometry">
            <mxRectangle width="30" height="30" as="alternateBounds" />
          </mxGeometry>
        </mxCell>
        <mxCell id="_2BZUjgcxiHqNRs6hB5g-190" value="contact varchar(120)" style="shape=partialRectangle;overflow=hidden;connectable=0;fillColor=none;top=0;left=0;bottom=0;right=0;align=left;spacingLeft=6;" vertex="1" parent="_2BZUjgcxiHqNRs6hB5g-188">
          <mxGeometry x="30" width="220" height="30" as="geometry">
            <mxRectangle width="220" height="30" as="alternateBounds" />
          </mxGeometry>
        </mxCell>
        <mxCell id="_2BZUjgcxiHqNRs6hB5g-203" value="" style="shape=partialRectangle;collapsible=0;dropTarget=0;pointerEvents=0;fillColor=none;points=[[0,0.5],[1,0.5]];portConstraint=eastwest;top=0;left=0;right=0;bottom=0;" vertex="1" parent="_2BZUjgcxiHqNRs6hB5g-172">
          <mxGeometry y="210" width="250" height="30" as="geometry" />
        </mxCell>
        <mxCell id="_2BZUjgcxiHqNRs6hB5g-204" value="" style="shape=partialRectangle;overflow=hidden;connectable=0;fillColor=none;top=0;left=0;bottom=0;right=0;" vertex="1" parent="_2BZUjgcxiHqNRs6hB5g-203">
          <mxGeometry width="30" height="30" as="geometry">
            <mxRectangle width="30" height="30" as="alternateBounds" />
          </mxGeometry>
        </mxCell>
        <mxCell id="_2BZUjgcxiHqNRs6hB5g-205" value="gender varchar(10)" style="shape=partialRectangle;overflow=hidden;connectable=0;fillColor=none;top=0;left=0;bottom=0;right=0;align=left;spacingLeft=6;" vertex="1" parent="_2BZUjgcxiHqNRs6hB5g-203">
          <mxGeometry x="30" width="220" height="30" as="geometry">
            <mxRectangle width="220" height="30" as="alternateBounds" />
          </mxGeometry>
        </mxCell>
        <mxCell id="_2BZUjgcxiHqNRs6hB5g-191" value="" style="shape=partialRectangle;collapsible=0;dropTarget=0;pointerEvents=0;fillColor=none;points=[[0,0.5],[1,0.5]];portConstraint=eastwest;top=0;left=0;right=0;bottom=0;" vertex="1" parent="_2BZUjgcxiHqNRs6hB5g-172">
          <mxGeometry y="240" width="250" height="30" as="geometry" />
        </mxCell>
        <mxCell id="_2BZUjgcxiHqNRs6hB5g-192" value="" style="shape=partialRectangle;overflow=hidden;connectable=0;fillColor=none;top=0;left=0;bottom=0;right=0;" vertex="1" parent="_2BZUjgcxiHqNRs6hB5g-191">
          <mxGeometry width="30" height="30" as="geometry">
            <mxRectangle width="30" height="30" as="alternateBounds" />
          </mxGeometry>
        </mxCell>
        <mxCell id="_2BZUjgcxiHqNRs6hB5g-193" value="pwd varchar (255)" style="shape=partialRectangle;overflow=hidden;connectable=0;fillColor=none;top=0;left=0;bottom=0;right=0;align=left;spacingLeft=6;" vertex="1" parent="_2BZUjgcxiHqNRs6hB5g-191">
          <mxGeometry x="30" width="220" height="30" as="geometry">
            <mxRectangle width="220" height="30" as="alternateBounds" />
          </mxGeometry>
        </mxCell>
        <mxCell id="_2BZUjgcxiHqNRs6hB5g-197" value="" style="shape=partialRectangle;collapsible=0;dropTarget=0;pointerEvents=0;fillColor=none;points=[[0,0.5],[1,0.5]];portConstraint=eastwest;top=0;left=0;right=0;bottom=0;" vertex="1" parent="_2BZUjgcxiHqNRs6hB5g-172">
          <mxGeometry y="270" width="250" height="30" as="geometry" />
        </mxCell>
        <mxCell id="_2BZUjgcxiHqNRs6hB5g-198" value="" style="shape=partialRectangle;overflow=hidden;connectable=0;fillColor=none;top=0;left=0;bottom=0;right=0;" vertex="1" parent="_2BZUjgcxiHqNRs6hB5g-197">
          <mxGeometry width="30" height="30" as="geometry">
            <mxRectangle width="30" height="30" as="alternateBounds" />
          </mxGeometry>
        </mxCell>
        <mxCell id="_2BZUjgcxiHqNRs6hB5g-199" value="status varchar(255)" style="shape=partialRectangle;overflow=hidden;connectable=0;fillColor=none;top=0;left=0;bottom=0;right=0;align=left;spacingLeft=6;" vertex="1" parent="_2BZUjgcxiHqNRs6hB5g-197">
          <mxGeometry x="30" width="220" height="30" as="geometry">
            <mxRectangle width="220" height="30" as="alternateBounds" />
          </mxGeometry>
        </mxCell>
        <mxCell id="_2BZUjgcxiHqNRs6hB5g-200" value="" style="shape=partialRectangle;collapsible=0;dropTarget=0;pointerEvents=0;fillColor=none;points=[[0,0.5],[1,0.5]];portConstraint=eastwest;top=0;left=0;right=0;bottom=0;" vertex="1" parent="_2BZUjgcxiHqNRs6hB5g-172">
          <mxGeometry y="300" width="250" height="30" as="geometry" />
        </mxCell>
        <mxCell id="_2BZUjgcxiHqNRs6hB5g-201" value="" style="shape=partialRectangle;overflow=hidden;connectable=0;fillColor=none;top=0;left=0;bottom=0;right=0;" vertex="1" parent="_2BZUjgcxiHqNRs6hB5g-200">
          <mxGeometry width="30" height="30" as="geometry">
            <mxRectangle width="30" height="30" as="alternateBounds" />
          </mxGeometry>
        </mxCell>
        <mxCell id="_2BZUjgcxiHqNRs6hB5g-202" value="email varchar(255)" style="shape=partialRectangle;overflow=hidden;connectable=0;fillColor=none;top=0;left=0;bottom=0;right=0;align=left;spacingLeft=6;" vertex="1" parent="_2BZUjgcxiHqNRs6hB5g-200">
          <mxGeometry x="30" width="220" height="30" as="geometry">
            <mxRectangle width="220" height="30" as="alternateBounds" />
          </mxGeometry>
        </mxCell>
        <mxCell id="_2BZUjgcxiHqNRs6hB5g-206" value="pdf_files" style="shape=table;startSize=30;container=1;collapsible=1;childLayout=tableLayout;fixedRows=1;rowLines=0;fontStyle=1;align=center;resizeLast=1;fillStyle=solid;" vertex="1" parent="1">
          <mxGeometry x="825" y="477" width="269" height="261" as="geometry" />
        </mxCell>
        <mxCell id="_2BZUjgcxiHqNRs6hB5g-207" value="" style="shape=partialRectangle;collapsible=0;dropTarget=0;pointerEvents=0;fillColor=none;points=[[0,0.5],[1,0.5]];portConstraint=eastwest;top=0;left=0;right=0;bottom=1;" vertex="1" parent="_2BZUjgcxiHqNRs6hB5g-206">
          <mxGeometry y="30" width="269" height="30" as="geometry" />
        </mxCell>
        <mxCell id="_2BZUjgcxiHqNRs6hB5g-208" value="PK" style="shape=partialRectangle;overflow=hidden;connectable=0;fillColor=none;top=0;left=0;bottom=0;right=0;fontStyle=1;" vertex="1" parent="_2BZUjgcxiHqNRs6hB5g-207">
          <mxGeometry width="44.274557674632376" height="30" as="geometry">
            <mxRectangle width="44.274557674632376" height="30" as="alternateBounds" />
          </mxGeometry>
        </mxCell>
        <mxCell id="_2BZUjgcxiHqNRs6hB5g-209" value="id int AI PK" style="shape=partialRectangle;overflow=hidden;connectable=0;fillColor=none;top=0;left=0;bottom=0;right=0;align=left;spacingLeft=6;fontStyle=5;" vertex="1" parent="_2BZUjgcxiHqNRs6hB5g-207">
          <mxGeometry x="44.274557674632376" width="224.72544232536762" height="30" as="geometry">
            <mxRectangle width="224.72544232536762" height="30" as="alternateBounds" />
          </mxGeometry>
        </mxCell>
        <mxCell id="_2BZUjgcxiHqNRs6hB5g-210" value="" style="shape=partialRectangle;collapsible=0;dropTarget=0;pointerEvents=0;fillColor=none;points=[[0,0.5],[1,0.5]];portConstraint=eastwest;top=0;left=0;right=0;bottom=0;" vertex="1" parent="_2BZUjgcxiHqNRs6hB5g-206">
          <mxGeometry y="60" width="269" height="35" as="geometry" />
        </mxCell>
        <mxCell id="_2BZUjgcxiHqNRs6hB5g-211" value="" style="shape=partialRectangle;overflow=hidden;connectable=0;fillColor=none;top=0;left=0;bottom=0;right=0;" vertex="1" parent="_2BZUjgcxiHqNRs6hB5g-210">
          <mxGeometry width="44.274557674632376" height="35" as="geometry">
            <mxRectangle width="44.274557674632376" height="35" as="alternateBounds" />
          </mxGeometry>
        </mxCell>
        <mxCell id="_2BZUjgcxiHqNRs6hB5g-212" value="name varchar(255)" style="shape=partialRectangle;overflow=hidden;connectable=0;fillColor=none;top=0;left=0;bottom=0;right=0;align=left;spacingLeft=6;" vertex="1" parent="_2BZUjgcxiHqNRs6hB5g-210">
          <mxGeometry x="44.274557674632376" width="224.72544232536762" height="35" as="geometry">
            <mxRectangle width="224.72544232536762" height="35" as="alternateBounds" />
          </mxGeometry>
        </mxCell>
        <mxCell id="_2BZUjgcxiHqNRs6hB5g-213" value="" style="shape=partialRectangle;collapsible=0;dropTarget=0;pointerEvents=0;fillColor=none;points=[[0,0.5],[1,0.5]];portConstraint=eastwest;top=0;left=0;right=0;bottom=0;" vertex="1" parent="_2BZUjgcxiHqNRs6hB5g-206">
          <mxGeometry y="95" width="269" height="30" as="geometry" />
        </mxCell>
        <mxCell id="_2BZUjgcxiHqNRs6hB5g-214" value="" style="shape=partialRectangle;overflow=hidden;connectable=0;fillColor=none;top=0;left=0;bottom=0;right=0;" vertex="1" parent="_2BZUjgcxiHqNRs6hB5g-213">
          <mxGeometry width="44.274557674632376" height="30" as="geometry">
            <mxRectangle width="44.274557674632376" height="30" as="alternateBounds" />
          </mxGeometry>
        </mxCell>
        <mxCell id="_2BZUjgcxiHqNRs6hB5g-215" value="type varchar(500)" style="shape=partialRectangle;overflow=hidden;connectable=0;fillColor=none;top=0;left=0;bottom=0;right=0;align=left;spacingLeft=6;" vertex="1" parent="_2BZUjgcxiHqNRs6hB5g-213">
          <mxGeometry x="44.274557674632376" width="224.72544232536762" height="30" as="geometry">
            <mxRectangle width="224.72544232536762" height="30" as="alternateBounds" />
          </mxGeometry>
        </mxCell>
        <mxCell id="_2BZUjgcxiHqNRs6hB5g-216" value="" style="shape=partialRectangle;collapsible=0;dropTarget=0;pointerEvents=0;fillColor=none;points=[[0,0.5],[1,0.5]];portConstraint=eastwest;top=0;left=0;right=0;bottom=0;" vertex="1" parent="_2BZUjgcxiHqNRs6hB5g-206">
          <mxGeometry y="125" width="269" height="33" as="geometry" />
        </mxCell>
        <mxCell id="_2BZUjgcxiHqNRs6hB5g-217" value="" style="shape=partialRectangle;overflow=hidden;connectable=0;fillColor=none;top=0;left=0;bottom=0;right=0;" vertex="1" parent="_2BZUjgcxiHqNRs6hB5g-216">
          <mxGeometry width="44.274557674632376" height="33" as="geometry">
            <mxRectangle width="44.274557674632376" height="33" as="alternateBounds" />
          </mxGeometry>
        </mxCell>
        <mxCell id="_2BZUjgcxiHqNRs6hB5g-218" value="size int" style="shape=partialRectangle;overflow=hidden;connectable=0;fillColor=none;top=0;left=0;bottom=0;right=0;align=left;spacingLeft=6;" vertex="1" parent="_2BZUjgcxiHqNRs6hB5g-216">
          <mxGeometry x="44.274557674632376" width="224.72544232536762" height="33" as="geometry">
            <mxRectangle width="224.72544232536762" height="33" as="alternateBounds" />
          </mxGeometry>
        </mxCell>
        <mxCell id="_2BZUjgcxiHqNRs6hB5g-219" value="" style="shape=partialRectangle;collapsible=0;dropTarget=0;pointerEvents=0;fillColor=none;points=[[0,0.5],[1,0.5]];portConstraint=eastwest;top=0;left=0;right=0;bottom=0;" vertex="1" parent="_2BZUjgcxiHqNRs6hB5g-206">
          <mxGeometry y="158" width="269" height="30" as="geometry" />
        </mxCell>
        <mxCell id="_2BZUjgcxiHqNRs6hB5g-220" value="" style="shape=partialRectangle;overflow=hidden;connectable=0;fillColor=none;top=0;left=0;bottom=0;right=0;" vertex="1" parent="_2BZUjgcxiHqNRs6hB5g-219">
          <mxGeometry width="44.274557674632376" height="30" as="geometry">
            <mxRectangle width="44.274557674632376" height="30" as="alternateBounds" />
          </mxGeometry>
        </mxCell>
        <mxCell id="_2BZUjgcxiHqNRs6hB5g-221" value="content longblob" style="shape=partialRectangle;overflow=hidden;connectable=0;fillColor=none;top=0;left=0;bottom=0;right=0;align=left;spacingLeft=6;" vertex="1" parent="_2BZUjgcxiHqNRs6hB5g-219">
          <mxGeometry x="44.274557674632376" width="224.72544232536762" height="30" as="geometry">
            <mxRectangle width="224.72544232536762" height="30" as="alternateBounds" />
          </mxGeometry>
        </mxCell>
        <mxCell id="_2BZUjgcxiHqNRs6hB5g-222" value="" style="shape=partialRectangle;collapsible=0;dropTarget=0;pointerEvents=0;fillColor=none;points=[[0,0.5],[1,0.5]];portConstraint=eastwest;top=0;left=0;right=0;bottom=0;" vertex="1" parent="_2BZUjgcxiHqNRs6hB5g-206">
          <mxGeometry y="188" width="269" height="30" as="geometry" />
        </mxCell>
        <mxCell id="_2BZUjgcxiHqNRs6hB5g-223" value="" style="shape=partialRectangle;overflow=hidden;connectable=0;fillColor=none;top=0;left=0;bottom=0;right=0;" vertex="1" parent="_2BZUjgcxiHqNRs6hB5g-222">
          <mxGeometry width="44.274557674632376" height="30" as="geometry">
            <mxRectangle width="44.274557674632376" height="30" as="alternateBounds" />
          </mxGeometry>
        </mxCell>
        <mxCell id="_2BZUjgcxiHqNRs6hB5g-224" value="first_name varchar(255)" style="shape=partialRectangle;overflow=hidden;connectable=0;fillColor=none;top=0;left=0;bottom=0;right=0;align=left;spacingLeft=6;" vertex="1" parent="_2BZUjgcxiHqNRs6hB5g-222">
          <mxGeometry x="44.274557674632376" width="224.72544232536762" height="30" as="geometry">
            <mxRectangle width="224.72544232536762" height="30" as="alternateBounds" />
          </mxGeometry>
        </mxCell>
        <mxCell id="_2BZUjgcxiHqNRs6hB5g-225" value="" style="shape=partialRectangle;collapsible=0;dropTarget=0;pointerEvents=0;fillColor=none;points=[[0,0.5],[1,0.5]];portConstraint=eastwest;top=0;left=0;right=0;bottom=0;" vertex="1" parent="_2BZUjgcxiHqNRs6hB5g-206">
          <mxGeometry y="218" width="269" height="43" as="geometry" />
        </mxCell>
        <mxCell id="_2BZUjgcxiHqNRs6hB5g-226" value="" style="shape=partialRectangle;overflow=hidden;connectable=0;fillColor=none;top=0;left=0;bottom=0;right=0;" vertex="1" parent="_2BZUjgcxiHqNRs6hB5g-225">
          <mxGeometry width="44.274557674632376" height="43" as="geometry">
            <mxRectangle width="44.274557674632376" height="43" as="alternateBounds" />
          </mxGeometry>
        </mxCell>
        <mxCell id="_2BZUjgcxiHqNRs6hB5g-227" value="last_name varchar(255)" style="shape=partialRectangle;overflow=hidden;connectable=0;fillColor=none;top=0;left=0;bottom=0;right=0;align=left;spacingLeft=6;" vertex="1" parent="_2BZUjgcxiHqNRs6hB5g-225">
          <mxGeometry x="44.274557674632376" width="224.72544232536762" height="43" as="geometry">
            <mxRectangle width="224.72544232536762" height="43" as="alternateBounds" />
          </mxGeometry>
        </mxCell>
        <mxCell id="_2BZUjgcxiHqNRs6hB5g-228" value="personaltrainerapplicants" style="shape=table;startSize=30;container=1;collapsible=1;childLayout=tableLayout;fixedRows=1;rowLines=0;fontStyle=1;align=center;resizeLast=1;fillStyle=solid;" vertex="1" parent="1">
          <mxGeometry x="444" y="900" width="245" height="450" as="geometry" />
        </mxCell>
        <mxCell id="_2BZUjgcxiHqNRs6hB5g-229" value="" style="shape=partialRectangle;collapsible=0;dropTarget=0;pointerEvents=0;fillColor=none;points=[[0,0.5],[1,0.5]];portConstraint=eastwest;top=0;left=0;right=0;bottom=1;" vertex="1" parent="_2BZUjgcxiHqNRs6hB5g-228">
          <mxGeometry y="30" width="245" height="30" as="geometry" />
        </mxCell>
        <mxCell id="_2BZUjgcxiHqNRs6hB5g-230" value="PK" style="shape=partialRectangle;overflow=hidden;connectable=0;fillColor=none;top=0;left=0;bottom=0;right=0;fontStyle=1;" vertex="1" parent="_2BZUjgcxiHqNRs6hB5g-229">
          <mxGeometry width="30" height="30" as="geometry">
            <mxRectangle width="30" height="30" as="alternateBounds" />
          </mxGeometry>
        </mxCell>
        <mxCell id="_2BZUjgcxiHqNRs6hB5g-231" value="Transaction_id int AI PK" style="shape=partialRectangle;overflow=hidden;connectable=0;fillColor=none;top=0;left=0;bottom=0;right=0;align=left;spacingLeft=6;fontStyle=5;" vertex="1" parent="_2BZUjgcxiHqNRs6hB5g-229">
          <mxGeometry x="30" width="215" height="30" as="geometry">
            <mxRectangle width="215" height="30" as="alternateBounds" />
          </mxGeometry>
        </mxCell>
        <mxCell id="_2BZUjgcxiHqNRs6hB5g-232" value="" style="shape=partialRectangle;collapsible=0;dropTarget=0;pointerEvents=0;fillColor=none;points=[[0,0.5],[1,0.5]];portConstraint=eastwest;top=0;left=0;right=0;bottom=0;" vertex="1" parent="_2BZUjgcxiHqNRs6hB5g-228">
          <mxGeometry y="60" width="245" height="30" as="geometry" />
        </mxCell>
        <mxCell id="_2BZUjgcxiHqNRs6hB5g-233" value="" style="shape=partialRectangle;overflow=hidden;connectable=0;fillColor=none;top=0;left=0;bottom=0;right=0;" vertex="1" parent="_2BZUjgcxiHqNRs6hB5g-232">
          <mxGeometry width="30" height="30" as="geometry">
            <mxRectangle width="30" height="30" as="alternateBounds" />
          </mxGeometry>
        </mxCell>
        <mxCell id="_2BZUjgcxiHqNRs6hB5g-234" value="Instructor&#39;s First Name varchar(50)" style="shape=partialRectangle;overflow=hidden;connectable=0;fillColor=none;top=0;left=0;bottom=0;right=0;align=left;spacingLeft=6;" vertex="1" parent="_2BZUjgcxiHqNRs6hB5g-232">
          <mxGeometry x="30" width="215" height="30" as="geometry">
            <mxRectangle width="215" height="30" as="alternateBounds" />
          </mxGeometry>
        </mxCell>
        <mxCell id="_2BZUjgcxiHqNRs6hB5g-235" value="" style="shape=partialRectangle;collapsible=0;dropTarget=0;pointerEvents=0;fillColor=none;points=[[0,0.5],[1,0.5]];portConstraint=eastwest;top=0;left=0;right=0;bottom=0;" vertex="1" parent="_2BZUjgcxiHqNRs6hB5g-228">
          <mxGeometry y="90" width="245" height="30" as="geometry" />
        </mxCell>
        <mxCell id="_2BZUjgcxiHqNRs6hB5g-236" value="" style="shape=partialRectangle;overflow=hidden;connectable=0;fillColor=none;top=0;left=0;bottom=0;right=0;" vertex="1" parent="_2BZUjgcxiHqNRs6hB5g-235">
          <mxGeometry width="30" height="30" as="geometry">
            <mxRectangle width="30" height="30" as="alternateBounds" />
          </mxGeometry>
        </mxCell>
        <mxCell id="_2BZUjgcxiHqNRs6hB5g-237" value="Instructor&#39;s Last Name varchar(50)" style="shape=partialRectangle;overflow=hidden;connectable=0;fillColor=none;top=0;left=0;bottom=0;right=0;align=left;spacingLeft=6;" vertex="1" parent="_2BZUjgcxiHqNRs6hB5g-235">
          <mxGeometry x="30" width="215" height="30" as="geometry">
            <mxRectangle width="215" height="30" as="alternateBounds" />
          </mxGeometry>
        </mxCell>
        <mxCell id="_2BZUjgcxiHqNRs6hB5g-238" value="" style="shape=partialRectangle;collapsible=0;dropTarget=0;pointerEvents=0;fillColor=none;points=[[0,0.5],[1,0.5]];portConstraint=eastwest;top=0;left=0;right=0;bottom=0;" vertex="1" parent="_2BZUjgcxiHqNRs6hB5g-228">
          <mxGeometry y="120" width="245" height="30" as="geometry" />
        </mxCell>
        <mxCell id="_2BZUjgcxiHqNRs6hB5g-239" value="" style="shape=partialRectangle;overflow=hidden;connectable=0;fillColor=none;top=0;left=0;bottom=0;right=0;" vertex="1" parent="_2BZUjgcxiHqNRs6hB5g-238">
          <mxGeometry width="30" height="30" as="geometry">
            <mxRectangle width="30" height="30" as="alternateBounds" />
          </mxGeometry>
        </mxCell>
        <mxCell id="_2BZUjgcxiHqNRs6hB5g-240" value="Instructor&#39;s Id int" style="shape=partialRectangle;overflow=hidden;connectable=0;fillColor=none;top=0;left=0;bottom=0;right=0;align=left;spacingLeft=6;" vertex="1" parent="_2BZUjgcxiHqNRs6hB5g-238">
          <mxGeometry x="30" width="215" height="30" as="geometry">
            <mxRectangle width="215" height="30" as="alternateBounds" />
          </mxGeometry>
        </mxCell>
        <mxCell id="_2BZUjgcxiHqNRs6hB5g-241" value="" style="shape=partialRectangle;collapsible=0;dropTarget=0;pointerEvents=0;fillColor=none;points=[[0,0.5],[1,0.5]];portConstraint=eastwest;top=0;left=0;right=0;bottom=0;" vertex="1" parent="_2BZUjgcxiHqNRs6hB5g-228">
          <mxGeometry y="150" width="245" height="30" as="geometry" />
        </mxCell>
        <mxCell id="_2BZUjgcxiHqNRs6hB5g-242" value="" style="shape=partialRectangle;overflow=hidden;connectable=0;fillColor=none;top=0;left=0;bottom=0;right=0;" vertex="1" parent="_2BZUjgcxiHqNRs6hB5g-241">
          <mxGeometry width="30" height="30" as="geometry">
            <mxRectangle width="30" height="30" as="alternateBounds" />
          </mxGeometry>
        </mxCell>
        <mxCell id="_2BZUjgcxiHqNRs6hB5g-243" value="FirstName varchar(50)" style="shape=partialRectangle;overflow=hidden;connectable=0;fillColor=none;top=0;left=0;bottom=0;right=0;align=left;spacingLeft=6;" vertex="1" parent="_2BZUjgcxiHqNRs6hB5g-241">
          <mxGeometry x="30" width="215" height="30" as="geometry">
            <mxRectangle width="215" height="30" as="alternateBounds" />
          </mxGeometry>
        </mxCell>
        <mxCell id="_2BZUjgcxiHqNRs6hB5g-244" value="" style="shape=partialRectangle;collapsible=0;dropTarget=0;pointerEvents=0;fillColor=none;points=[[0,0.5],[1,0.5]];portConstraint=eastwest;top=0;left=0;right=0;bottom=0;" vertex="1" parent="_2BZUjgcxiHqNRs6hB5g-228">
          <mxGeometry y="180" width="245" height="30" as="geometry" />
        </mxCell>
        <mxCell id="_2BZUjgcxiHqNRs6hB5g-245" value="" style="shape=partialRectangle;overflow=hidden;connectable=0;fillColor=none;top=0;left=0;bottom=0;right=0;" vertex="1" parent="_2BZUjgcxiHqNRs6hB5g-244">
          <mxGeometry width="30" height="30" as="geometry">
            <mxRectangle width="30" height="30" as="alternateBounds" />
          </mxGeometry>
        </mxCell>
        <mxCell id="_2BZUjgcxiHqNRs6hB5g-246" value="LastName varchar(50)" style="shape=partialRectangle;overflow=hidden;connectable=0;fillColor=none;top=0;left=0;bottom=0;right=0;align=left;spacingLeft=6;" vertex="1" parent="_2BZUjgcxiHqNRs6hB5g-244">
          <mxGeometry x="30" width="215" height="30" as="geometry">
            <mxRectangle width="215" height="30" as="alternateBounds" />
          </mxGeometry>
        </mxCell>
        <mxCell id="_2BZUjgcxiHqNRs6hB5g-247" value="" style="shape=partialRectangle;collapsible=0;dropTarget=0;pointerEvents=0;fillColor=none;points=[[0,0.5],[1,0.5]];portConstraint=eastwest;top=0;left=0;right=0;bottom=0;" vertex="1" parent="_2BZUjgcxiHqNRs6hB5g-228">
          <mxGeometry y="210" width="245" height="30" as="geometry" />
        </mxCell>
        <mxCell id="_2BZUjgcxiHqNRs6hB5g-248" value="" style="shape=partialRectangle;overflow=hidden;connectable=0;fillColor=none;top=0;left=0;bottom=0;right=0;" vertex="1" parent="_2BZUjgcxiHqNRs6hB5g-247">
          <mxGeometry width="30" height="30" as="geometry">
            <mxRectangle width="30" height="30" as="alternateBounds" />
          </mxGeometry>
        </mxCell>
        <mxCell id="_2BZUjgcxiHqNRs6hB5g-249" value="Weight float" style="shape=partialRectangle;overflow=hidden;connectable=0;fillColor=none;top=0;left=0;bottom=0;right=0;align=left;spacingLeft=6;" vertex="1" parent="_2BZUjgcxiHqNRs6hB5g-247">
          <mxGeometry x="30" width="215" height="30" as="geometry">
            <mxRectangle width="215" height="30" as="alternateBounds" />
          </mxGeometry>
        </mxCell>
        <mxCell id="_2BZUjgcxiHqNRs6hB5g-250" value="" style="shape=partialRectangle;collapsible=0;dropTarget=0;pointerEvents=0;fillColor=none;points=[[0,0.5],[1,0.5]];portConstraint=eastwest;top=0;left=0;right=0;bottom=0;" vertex="1" parent="_2BZUjgcxiHqNRs6hB5g-228">
          <mxGeometry y="240" width="245" height="30" as="geometry" />
        </mxCell>
        <mxCell id="_2BZUjgcxiHqNRs6hB5g-251" value="" style="shape=partialRectangle;overflow=hidden;connectable=0;fillColor=none;top=0;left=0;bottom=0;right=0;" vertex="1" parent="_2BZUjgcxiHqNRs6hB5g-250">
          <mxGeometry width="30" height="30" as="geometry">
            <mxRectangle width="30" height="30" as="alternateBounds" />
          </mxGeometry>
        </mxCell>
        <mxCell id="_2BZUjgcxiHqNRs6hB5g-252" value="Contact varchar(155)" style="shape=partialRectangle;overflow=hidden;connectable=0;fillColor=none;top=0;left=0;bottom=0;right=0;align=left;spacingLeft=6;" vertex="1" parent="_2BZUjgcxiHqNRs6hB5g-250">
          <mxGeometry x="30" width="215" height="30" as="geometry">
            <mxRectangle width="215" height="30" as="alternateBounds" />
          </mxGeometry>
        </mxCell>
        <mxCell id="_2BZUjgcxiHqNRs6hB5g-253" value="" style="shape=partialRectangle;collapsible=0;dropTarget=0;pointerEvents=0;fillColor=none;points=[[0,0.5],[1,0.5]];portConstraint=eastwest;top=0;left=0;right=0;bottom=0;" vertex="1" parent="_2BZUjgcxiHqNRs6hB5g-228">
          <mxGeometry y="270" width="245" height="30" as="geometry" />
        </mxCell>
        <mxCell id="_2BZUjgcxiHqNRs6hB5g-254" value="" style="shape=partialRectangle;overflow=hidden;connectable=0;fillColor=none;top=0;left=0;bottom=0;right=0;" vertex="1" parent="_2BZUjgcxiHqNRs6hB5g-253">
          <mxGeometry width="30" height="30" as="geometry">
            <mxRectangle width="30" height="30" as="alternateBounds" />
          </mxGeometry>
        </mxCell>
        <mxCell id="_2BZUjgcxiHqNRs6hB5g-255" value="Gender enum(&#39;Male&#39;,&#39;Female&#39;)" style="shape=partialRectangle;overflow=hidden;connectable=0;fillColor=none;top=0;left=0;bottom=0;right=0;align=left;spacingLeft=6;" vertex="1" parent="_2BZUjgcxiHqNRs6hB5g-253">
          <mxGeometry x="30" width="215" height="30" as="geometry">
            <mxRectangle width="215" height="30" as="alternateBounds" />
          </mxGeometry>
        </mxCell>
        <mxCell id="_2BZUjgcxiHqNRs6hB5g-256" value="" style="shape=partialRectangle;collapsible=0;dropTarget=0;pointerEvents=0;fillColor=none;points=[[0,0.5],[1,0.5]];portConstraint=eastwest;top=0;left=0;right=0;bottom=0;" vertex="1" parent="_2BZUjgcxiHqNRs6hB5g-228">
          <mxGeometry y="300" width="245" height="30" as="geometry" />
        </mxCell>
        <mxCell id="_2BZUjgcxiHqNRs6hB5g-257" value="" style="shape=partialRectangle;overflow=hidden;connectable=0;fillColor=none;top=0;left=0;bottom=0;right=0;" vertex="1" parent="_2BZUjgcxiHqNRs6hB5g-256">
          <mxGeometry width="30" height="30" as="geometry">
            <mxRectangle width="30" height="30" as="alternateBounds" />
          </mxGeometry>
        </mxCell>
        <mxCell id="_2BZUjgcxiHqNRs6hB5g-258" value="amount decimal(10,2)" style="shape=partialRectangle;overflow=hidden;connectable=0;fillColor=none;top=0;left=0;bottom=0;right=0;align=left;spacingLeft=6;" vertex="1" parent="_2BZUjgcxiHqNRs6hB5g-256">
          <mxGeometry x="30" width="215" height="30" as="geometry">
            <mxRectangle width="215" height="30" as="alternateBounds" />
          </mxGeometry>
        </mxCell>
        <mxCell id="_2BZUjgcxiHqNRs6hB5g-262" value="" style="shape=partialRectangle;collapsible=0;dropTarget=0;pointerEvents=0;fillColor=none;points=[[0,0.5],[1,0.5]];portConstraint=eastwest;top=0;left=0;right=0;bottom=0;" vertex="1" parent="_2BZUjgcxiHqNRs6hB5g-228">
          <mxGeometry y="330" width="245" height="30" as="geometry" />
        </mxCell>
        <mxCell id="_2BZUjgcxiHqNRs6hB5g-263" value="" style="shape=partialRectangle;overflow=hidden;connectable=0;fillColor=none;top=0;left=0;bottom=0;right=0;" vertex="1" parent="_2BZUjgcxiHqNRs6hB5g-262">
          <mxGeometry width="30" height="30" as="geometry">
            <mxRectangle width="30" height="30" as="alternateBounds" />
          </mxGeometry>
        </mxCell>
        <mxCell id="_2BZUjgcxiHqNRs6hB5g-264" value="status varchar(10)" style="shape=partialRectangle;overflow=hidden;connectable=0;fillColor=none;top=0;left=0;bottom=0;right=0;align=left;spacingLeft=6;" vertex="1" parent="_2BZUjgcxiHqNRs6hB5g-262">
          <mxGeometry x="30" width="215" height="30" as="geometry">
            <mxRectangle width="215" height="30" as="alternateBounds" />
          </mxGeometry>
        </mxCell>
        <mxCell id="_2BZUjgcxiHqNRs6hB5g-265" value="" style="shape=partialRectangle;collapsible=0;dropTarget=0;pointerEvents=0;fillColor=none;points=[[0,0.5],[1,0.5]];portConstraint=eastwest;top=0;left=0;right=0;bottom=0;" vertex="1" parent="_2BZUjgcxiHqNRs6hB5g-228">
          <mxGeometry y="360" width="245" height="30" as="geometry" />
        </mxCell>
        <mxCell id="_2BZUjgcxiHqNRs6hB5g-266" value="" style="shape=partialRectangle;overflow=hidden;connectable=0;fillColor=none;top=0;left=0;bottom=0;right=0;" vertex="1" parent="_2BZUjgcxiHqNRs6hB5g-265">
          <mxGeometry width="30" height="30" as="geometry">
            <mxRectangle width="30" height="30" as="alternateBounds" />
          </mxGeometry>
        </mxCell>
        <mxCell id="_2BZUjgcxiHqNRs6hB5g-267" value="Name varchar(255)" style="shape=partialRectangle;overflow=hidden;connectable=0;fillColor=none;top=0;left=0;bottom=0;right=0;align=left;spacingLeft=6;" vertex="1" parent="_2BZUjgcxiHqNRs6hB5g-265">
          <mxGeometry x="30" width="215" height="30" as="geometry">
            <mxRectangle width="215" height="30" as="alternateBounds" />
          </mxGeometry>
        </mxCell>
        <mxCell id="_2BZUjgcxiHqNRs6hB5g-268" value="" style="shape=partialRectangle;collapsible=0;dropTarget=0;pointerEvents=0;fillColor=none;points=[[0,0.5],[1,0.5]];portConstraint=eastwest;top=0;left=0;right=0;bottom=0;" vertex="1" parent="_2BZUjgcxiHqNRs6hB5g-228">
          <mxGeometry y="390" width="245" height="30" as="geometry" />
        </mxCell>
        <mxCell id="_2BZUjgcxiHqNRs6hB5g-269" value="" style="shape=partialRectangle;overflow=hidden;connectable=0;fillColor=none;top=0;left=0;bottom=0;right=0;" vertex="1" parent="_2BZUjgcxiHqNRs6hB5g-268">
          <mxGeometry width="30" height="30" as="geometry">
            <mxRectangle width="30" height="30" as="alternateBounds" />
          </mxGeometry>
        </mxCell>
        <mxCell id="_2BZUjgcxiHqNRs6hB5g-270" value="Type varchar(250)" style="shape=partialRectangle;overflow=hidden;connectable=0;fillColor=none;top=0;left=0;bottom=0;right=0;align=left;spacingLeft=6;" vertex="1" parent="_2BZUjgcxiHqNRs6hB5g-268">
          <mxGeometry x="30" width="215" height="30" as="geometry">
            <mxRectangle width="215" height="30" as="alternateBounds" />
          </mxGeometry>
        </mxCell>
        <mxCell id="_2BZUjgcxiHqNRs6hB5g-259" value="" style="shape=partialRectangle;collapsible=0;dropTarget=0;pointerEvents=0;fillColor=none;points=[[0,0.5],[1,0.5]];portConstraint=eastwest;top=0;left=0;right=0;bottom=0;" vertex="1" parent="_2BZUjgcxiHqNRs6hB5g-228">
          <mxGeometry y="420" width="245" height="30" as="geometry" />
        </mxCell>
        <mxCell id="_2BZUjgcxiHqNRs6hB5g-260" value="" style="shape=partialRectangle;overflow=hidden;connectable=0;fillColor=none;top=0;left=0;bottom=0;right=0;" vertex="1" parent="_2BZUjgcxiHqNRs6hB5g-259">
          <mxGeometry width="30" height="30" as="geometry">
            <mxRectangle width="30" height="30" as="alternateBounds" />
          </mxGeometry>
        </mxCell>
        <mxCell id="_2BZUjgcxiHqNRs6hB5g-261" value="Content longblob" style="shape=partialRectangle;overflow=hidden;connectable=0;fillColor=none;top=0;left=0;bottom=0;right=0;align=left;spacingLeft=6;" vertex="1" parent="_2BZUjgcxiHqNRs6hB5g-259">
          <mxGeometry x="30" width="215" height="30" as="geometry">
            <mxRectangle width="215" height="30" as="alternateBounds" />
          </mxGeometry>
        </mxCell>
        <mxCell id="_2BZUjgcxiHqNRs6hB5g-305" value="trainers_tbl" style="shape=table;startSize=30;container=1;collapsible=1;childLayout=tableLayout;fixedRows=1;rowLines=0;fontStyle=1;align=center;resizeLast=1;fillStyle=solid;" vertex="1" parent="1">
          <mxGeometry x="1173" y="407" width="250" height="370" as="geometry" />
        </mxCell>
        <mxCell id="_2BZUjgcxiHqNRs6hB5g-306" value="" style="shape=partialRectangle;collapsible=0;dropTarget=0;pointerEvents=0;fillColor=none;points=[[0,0.5],[1,0.5]];portConstraint=eastwest;top=0;left=0;right=0;bottom=1;" vertex="1" parent="_2BZUjgcxiHqNRs6hB5g-305">
          <mxGeometry y="30" width="250" height="30" as="geometry" />
        </mxCell>
        <mxCell id="_2BZUjgcxiHqNRs6hB5g-307" value="PK" style="shape=partialRectangle;overflow=hidden;connectable=0;fillColor=none;top=0;left=0;bottom=0;right=0;fontStyle=1;" vertex="1" parent="_2BZUjgcxiHqNRs6hB5g-306">
          <mxGeometry width="30" height="30" as="geometry">
            <mxRectangle width="30" height="30" as="alternateBounds" />
          </mxGeometry>
        </mxCell>
        <mxCell id="_2BZUjgcxiHqNRs6hB5g-308" value="id int AI PK" style="shape=partialRectangle;overflow=hidden;connectable=0;fillColor=none;top=0;left=0;bottom=0;right=0;align=left;spacingLeft=6;fontStyle=5;" vertex="1" parent="_2BZUjgcxiHqNRs6hB5g-306">
          <mxGeometry x="30" width="220" height="30" as="geometry">
            <mxRectangle width="220" height="30" as="alternateBounds" />
          </mxGeometry>
        </mxCell>
        <mxCell id="_2BZUjgcxiHqNRs6hB5g-309" value="" style="shape=partialRectangle;collapsible=0;dropTarget=0;pointerEvents=0;fillColor=none;points=[[0,0.5],[1,0.5]];portConstraint=eastwest;top=0;left=0;right=0;bottom=0;" vertex="1" parent="_2BZUjgcxiHqNRs6hB5g-305">
          <mxGeometry y="60" width="250" height="30" as="geometry" />
        </mxCell>
        <mxCell id="_2BZUjgcxiHqNRs6hB5g-310" value="" style="shape=partialRectangle;overflow=hidden;connectable=0;fillColor=none;top=0;left=0;bottom=0;right=0;" vertex="1" parent="_2BZUjgcxiHqNRs6hB5g-309">
          <mxGeometry width="30" height="30" as="geometry">
            <mxRectangle width="30" height="30" as="alternateBounds" />
          </mxGeometry>
        </mxCell>
        <mxCell id="_2BZUjgcxiHqNRs6hB5g-311" value="first_name varchar(255)" style="shape=partialRectangle;overflow=hidden;connectable=0;fillColor=none;top=0;left=0;bottom=0;right=0;align=left;spacingLeft=6;" vertex="1" parent="_2BZUjgcxiHqNRs6hB5g-309">
          <mxGeometry x="30" width="220" height="30" as="geometry">
            <mxRectangle width="220" height="30" as="alternateBounds" />
          </mxGeometry>
        </mxCell>
        <mxCell id="_2BZUjgcxiHqNRs6hB5g-312" value="" style="shape=partialRectangle;collapsible=0;dropTarget=0;pointerEvents=0;fillColor=none;points=[[0,0.5],[1,0.5]];portConstraint=eastwest;top=0;left=0;right=0;bottom=0;" vertex="1" parent="_2BZUjgcxiHqNRs6hB5g-305">
          <mxGeometry y="90" width="250" height="30" as="geometry" />
        </mxCell>
        <mxCell id="_2BZUjgcxiHqNRs6hB5g-313" value="" style="shape=partialRectangle;overflow=hidden;connectable=0;fillColor=none;top=0;left=0;bottom=0;right=0;" vertex="1" parent="_2BZUjgcxiHqNRs6hB5g-312">
          <mxGeometry width="30" height="30" as="geometry">
            <mxRectangle width="30" height="30" as="alternateBounds" />
          </mxGeometry>
        </mxCell>
        <mxCell id="_2BZUjgcxiHqNRs6hB5g-314" value="last_name varchar(255)" style="shape=partialRectangle;overflow=hidden;connectable=0;fillColor=none;top=0;left=0;bottom=0;right=0;align=left;spacingLeft=6;" vertex="1" parent="_2BZUjgcxiHqNRs6hB5g-312">
          <mxGeometry x="30" width="220" height="30" as="geometry">
            <mxRectangle width="220" height="30" as="alternateBounds" />
          </mxGeometry>
        </mxCell>
        <mxCell id="_2BZUjgcxiHqNRs6hB5g-315" value="" style="shape=partialRectangle;collapsible=0;dropTarget=0;pointerEvents=0;fillColor=none;points=[[0,0.5],[1,0.5]];portConstraint=eastwest;top=0;left=0;right=0;bottom=0;" vertex="1" parent="_2BZUjgcxiHqNRs6hB5g-305">
          <mxGeometry y="120" width="250" height="30" as="geometry" />
        </mxCell>
        <mxCell id="_2BZUjgcxiHqNRs6hB5g-316" value="" style="shape=partialRectangle;overflow=hidden;connectable=0;fillColor=none;top=0;left=0;bottom=0;right=0;" vertex="1" parent="_2BZUjgcxiHqNRs6hB5g-315">
          <mxGeometry width="30" height="30" as="geometry">
            <mxRectangle width="30" height="30" as="alternateBounds" />
          </mxGeometry>
        </mxCell>
        <mxCell id="_2BZUjgcxiHqNRs6hB5g-317" value="username varchar(255)" style="shape=partialRectangle;overflow=hidden;connectable=0;fillColor=none;top=0;left=0;bottom=0;right=0;align=left;spacingLeft=6;" vertex="1" parent="_2BZUjgcxiHqNRs6hB5g-315">
          <mxGeometry x="30" width="220" height="30" as="geometry">
            <mxRectangle width="220" height="30" as="alternateBounds" />
          </mxGeometry>
        </mxCell>
        <mxCell id="_2BZUjgcxiHqNRs6hB5g-318" value="" style="shape=partialRectangle;collapsible=0;dropTarget=0;pointerEvents=0;fillColor=none;points=[[0,0.5],[1,0.5]];portConstraint=eastwest;top=0;left=0;right=0;bottom=0;" vertex="1" parent="_2BZUjgcxiHqNRs6hB5g-305">
          <mxGeometry y="150" width="250" height="30" as="geometry" />
        </mxCell>
        <mxCell id="_2BZUjgcxiHqNRs6hB5g-319" value="" style="shape=partialRectangle;overflow=hidden;connectable=0;fillColor=none;top=0;left=0;bottom=0;right=0;" vertex="1" parent="_2BZUjgcxiHqNRs6hB5g-318">
          <mxGeometry width="30" height="30" as="geometry">
            <mxRectangle width="30" height="30" as="alternateBounds" />
          </mxGeometry>
        </mxCell>
        <mxCell id="_2BZUjgcxiHqNRs6hB5g-320" value="city varchar(255)" style="shape=partialRectangle;overflow=hidden;connectable=0;fillColor=none;top=0;left=0;bottom=0;right=0;align=left;spacingLeft=6;" vertex="1" parent="_2BZUjgcxiHqNRs6hB5g-318">
          <mxGeometry x="30" width="220" height="30" as="geometry">
            <mxRectangle width="220" height="30" as="alternateBounds" />
          </mxGeometry>
        </mxCell>
        <mxCell id="_2BZUjgcxiHqNRs6hB5g-338" value="" style="shape=partialRectangle;collapsible=0;dropTarget=0;pointerEvents=0;fillColor=none;points=[[0,0.5],[1,0.5]];portConstraint=eastwest;top=0;left=0;right=0;bottom=0;" vertex="1" parent="_2BZUjgcxiHqNRs6hB5g-305">
          <mxGeometry y="180" width="250" height="30" as="geometry" />
        </mxCell>
        <mxCell id="_2BZUjgcxiHqNRs6hB5g-339" value="" style="shape=partialRectangle;overflow=hidden;connectable=0;fillColor=none;top=0;left=0;bottom=0;right=0;" vertex="1" parent="_2BZUjgcxiHqNRs6hB5g-338">
          <mxGeometry width="30" height="30" as="geometry">
            <mxRectangle width="30" height="30" as="alternateBounds" />
          </mxGeometry>
        </mxCell>
        <mxCell id="_2BZUjgcxiHqNRs6hB5g-340" value="contact varchar(120)" style="shape=partialRectangle;overflow=hidden;connectable=0;fillColor=none;top=0;left=0;bottom=0;right=0;align=left;spacingLeft=6;" vertex="1" parent="_2BZUjgcxiHqNRs6hB5g-338">
          <mxGeometry x="30" width="220" height="30" as="geometry">
            <mxRectangle width="220" height="30" as="alternateBounds" />
          </mxGeometry>
        </mxCell>
        <mxCell id="_2BZUjgcxiHqNRs6hB5g-321" value="" style="shape=partialRectangle;collapsible=0;dropTarget=0;pointerEvents=0;fillColor=none;points=[[0,0.5],[1,0.5]];portConstraint=eastwest;top=0;left=0;right=0;bottom=0;" vertex="1" parent="_2BZUjgcxiHqNRs6hB5g-305">
          <mxGeometry y="210" width="250" height="30" as="geometry" />
        </mxCell>
        <mxCell id="_2BZUjgcxiHqNRs6hB5g-322" value="" style="shape=partialRectangle;overflow=hidden;connectable=0;fillColor=none;top=0;left=0;bottom=0;right=0;" vertex="1" parent="_2BZUjgcxiHqNRs6hB5g-321">
          <mxGeometry width="30" height="30" as="geometry">
            <mxRectangle width="30" height="30" as="alternateBounds" />
          </mxGeometry>
        </mxCell>
        <mxCell id="_2BZUjgcxiHqNRs6hB5g-323" value="trainer_type varchar(50)" style="shape=partialRectangle;overflow=hidden;connectable=0;fillColor=none;top=0;left=0;bottom=0;right=0;align=left;spacingLeft=6;" vertex="1" parent="_2BZUjgcxiHqNRs6hB5g-321">
          <mxGeometry x="30" width="220" height="30" as="geometry">
            <mxRectangle width="220" height="30" as="alternateBounds" />
          </mxGeometry>
        </mxCell>
        <mxCell id="_2BZUjgcxiHqNRs6hB5g-324" value="" style="shape=partialRectangle;collapsible=0;dropTarget=0;pointerEvents=0;fillColor=none;points=[[0,0.5],[1,0.5]];portConstraint=eastwest;top=0;left=0;right=0;bottom=0;" vertex="1" parent="_2BZUjgcxiHqNRs6hB5g-305">
          <mxGeometry y="240" width="250" height="30" as="geometry" />
        </mxCell>
        <mxCell id="_2BZUjgcxiHqNRs6hB5g-325" value="" style="shape=partialRectangle;overflow=hidden;connectable=0;fillColor=none;top=0;left=0;bottom=0;right=0;" vertex="1" parent="_2BZUjgcxiHqNRs6hB5g-324">
          <mxGeometry width="30" height="30" as="geometry">
            <mxRectangle width="30" height="30" as="alternateBounds" />
          </mxGeometry>
        </mxCell>
        <mxCell id="_2BZUjgcxiHqNRs6hB5g-326" value="gender varchar(10)" style="shape=partialRectangle;overflow=hidden;connectable=0;fillColor=none;top=0;left=0;bottom=0;right=0;align=left;spacingLeft=6;" vertex="1" parent="_2BZUjgcxiHqNRs6hB5g-324">
          <mxGeometry x="30" width="220" height="30" as="geometry">
            <mxRectangle width="220" height="30" as="alternateBounds" />
          </mxGeometry>
        </mxCell>
        <mxCell id="_2BZUjgcxiHqNRs6hB5g-327" value="" style="shape=partialRectangle;collapsible=0;dropTarget=0;pointerEvents=0;fillColor=none;points=[[0,0.5],[1,0.5]];portConstraint=eastwest;top=0;left=0;right=0;bottom=0;" vertex="1" parent="_2BZUjgcxiHqNRs6hB5g-305">
          <mxGeometry y="270" width="250" height="30" as="geometry" />
        </mxCell>
        <mxCell id="_2BZUjgcxiHqNRs6hB5g-328" value="" style="shape=partialRectangle;overflow=hidden;connectable=0;fillColor=none;top=0;left=0;bottom=0;right=0;" vertex="1" parent="_2BZUjgcxiHqNRs6hB5g-327">
          <mxGeometry width="30" height="30" as="geometry">
            <mxRectangle width="30" height="30" as="alternateBounds" />
          </mxGeometry>
        </mxCell>
        <mxCell id="_2BZUjgcxiHqNRs6hB5g-329" value="pwd varchar (250)" style="shape=partialRectangle;overflow=hidden;connectable=0;fillColor=none;top=0;left=0;bottom=0;right=0;align=left;spacingLeft=6;" vertex="1" parent="_2BZUjgcxiHqNRs6hB5g-327">
          <mxGeometry x="30" width="220" height="30" as="geometry">
            <mxRectangle width="220" height="30" as="alternateBounds" />
          </mxGeometry>
        </mxCell>
        <mxCell id="_2BZUjgcxiHqNRs6hB5g-330" value="" style="shape=partialRectangle;collapsible=0;dropTarget=0;pointerEvents=0;fillColor=none;points=[[0,0.5],[1,0.5]];portConstraint=eastwest;top=0;left=0;right=0;bottom=0;" vertex="1" parent="_2BZUjgcxiHqNRs6hB5g-305">
          <mxGeometry y="300" width="250" height="30" as="geometry" />
        </mxCell>
        <mxCell id="_2BZUjgcxiHqNRs6hB5g-331" value="" style="shape=partialRectangle;overflow=hidden;connectable=0;fillColor=none;top=0;left=0;bottom=0;right=0;" vertex="1" parent="_2BZUjgcxiHqNRs6hB5g-330">
          <mxGeometry width="30" height="30" as="geometry">
            <mxRectangle width="30" height="30" as="alternateBounds" />
          </mxGeometry>
        </mxCell>
        <mxCell id="_2BZUjgcxiHqNRs6hB5g-332" value="status varchar(255)" style="shape=partialRectangle;overflow=hidden;connectable=0;fillColor=none;top=0;left=0;bottom=0;right=0;align=left;spacingLeft=6;" vertex="1" parent="_2BZUjgcxiHqNRs6hB5g-330">
          <mxGeometry x="30" width="220" height="30" as="geometry">
            <mxRectangle width="220" height="30" as="alternateBounds" />
          </mxGeometry>
        </mxCell>
        <mxCell id="_2BZUjgcxiHqNRs6hB5g-333" value="" style="shape=partialRectangle;collapsible=0;dropTarget=0;pointerEvents=0;fillColor=none;points=[[0,0.5],[1,0.5]];portConstraint=eastwest;top=0;left=0;right=0;bottom=0;" vertex="1" parent="_2BZUjgcxiHqNRs6hB5g-305">
          <mxGeometry y="330" width="250" height="30" as="geometry" />
        </mxCell>
        <mxCell id="_2BZUjgcxiHqNRs6hB5g-334" value="" style="shape=partialRectangle;overflow=hidden;connectable=0;fillColor=none;top=0;left=0;bottom=0;right=0;" vertex="1" parent="_2BZUjgcxiHqNRs6hB5g-333">
          <mxGeometry width="30" height="30" as="geometry">
            <mxRectangle width="30" height="30" as="alternateBounds" />
          </mxGeometry>
        </mxCell>
        <mxCell id="_2BZUjgcxiHqNRs6hB5g-335" value="email varchar(255)" style="shape=partialRectangle;overflow=hidden;connectable=0;fillColor=none;top=0;left=0;bottom=0;right=0;align=left;spacingLeft=6;" vertex="1" parent="_2BZUjgcxiHqNRs6hB5g-333">
          <mxGeometry x="30" width="220" height="30" as="geometry">
            <mxRectangle width="220" height="30" as="alternateBounds" />
          </mxGeometry>
        </mxCell>
        <mxCell id="_2BZUjgcxiHqNRs6hB5g-341" value="taekwondoapplicants" style="shape=table;startSize=30;container=1;collapsible=1;childLayout=tableLayout;fixedRows=1;rowLines=0;fontStyle=1;align=center;resizeLast=1;fillStyle=solid;" vertex="1" parent="1">
          <mxGeometry x="1057" y="878" width="250" height="370" as="geometry" />
        </mxCell>
        <mxCell id="_2BZUjgcxiHqNRs6hB5g-342" value="" style="shape=partialRectangle;collapsible=0;dropTarget=0;pointerEvents=0;fillColor=none;points=[[0,0.5],[1,0.5]];portConstraint=eastwest;top=0;left=0;right=0;bottom=1;" vertex="1" parent="_2BZUjgcxiHqNRs6hB5g-341">
          <mxGeometry y="30" width="250" height="30" as="geometry" />
        </mxCell>
        <mxCell id="_2BZUjgcxiHqNRs6hB5g-343" value="PK" style="shape=partialRectangle;overflow=hidden;connectable=0;fillColor=none;top=0;left=0;bottom=0;right=0;fontStyle=1;" vertex="1" parent="_2BZUjgcxiHqNRs6hB5g-342">
          <mxGeometry width="30" height="30" as="geometry">
            <mxRectangle width="30" height="30" as="alternateBounds" />
          </mxGeometry>
        </mxCell>
        <mxCell id="_2BZUjgcxiHqNRs6hB5g-344" value="Transaction_id int AI PK" style="shape=partialRectangle;overflow=hidden;connectable=0;fillColor=none;top=0;left=0;bottom=0;right=0;align=left;spacingLeft=6;fontStyle=5;" vertex="1" parent="_2BZUjgcxiHqNRs6hB5g-342">
          <mxGeometry x="30" width="220" height="30" as="geometry">
            <mxRectangle width="220" height="30" as="alternateBounds" />
          </mxGeometry>
        </mxCell>
        <mxCell id="_2BZUjgcxiHqNRs6hB5g-345" value="" style="shape=partialRectangle;collapsible=0;dropTarget=0;pointerEvents=0;fillColor=none;points=[[0,0.5],[1,0.5]];portConstraint=eastwest;top=0;left=0;right=0;bottom=0;" vertex="1" parent="_2BZUjgcxiHqNRs6hB5g-341">
          <mxGeometry y="60" width="250" height="30" as="geometry" />
        </mxCell>
        <mxCell id="_2BZUjgcxiHqNRs6hB5g-346" value="" style="shape=partialRectangle;overflow=hidden;connectable=0;fillColor=none;top=0;left=0;bottom=0;right=0;" vertex="1" parent="_2BZUjgcxiHqNRs6hB5g-345">
          <mxGeometry width="30" height="30" as="geometry">
            <mxRectangle width="30" height="30" as="alternateBounds" />
          </mxGeometry>
        </mxCell>
        <mxCell id="_2BZUjgcxiHqNRs6hB5g-347" value="Instructor&#39;s First Name varchar(50)" style="shape=partialRectangle;overflow=hidden;connectable=0;fillColor=none;top=0;left=0;bottom=0;right=0;align=left;spacingLeft=6;" vertex="1" parent="_2BZUjgcxiHqNRs6hB5g-345">
          <mxGeometry x="30" width="220" height="30" as="geometry">
            <mxRectangle width="220" height="30" as="alternateBounds" />
          </mxGeometry>
        </mxCell>
        <mxCell id="_2BZUjgcxiHqNRs6hB5g-348" value="" style="shape=partialRectangle;collapsible=0;dropTarget=0;pointerEvents=0;fillColor=none;points=[[0,0.5],[1,0.5]];portConstraint=eastwest;top=0;left=0;right=0;bottom=0;" vertex="1" parent="_2BZUjgcxiHqNRs6hB5g-341">
          <mxGeometry y="90" width="250" height="30" as="geometry" />
        </mxCell>
        <mxCell id="_2BZUjgcxiHqNRs6hB5g-349" value="" style="shape=partialRectangle;overflow=hidden;connectable=0;fillColor=none;top=0;left=0;bottom=0;right=0;" vertex="1" parent="_2BZUjgcxiHqNRs6hB5g-348">
          <mxGeometry width="30" height="30" as="geometry">
            <mxRectangle width="30" height="30" as="alternateBounds" />
          </mxGeometry>
        </mxCell>
        <mxCell id="_2BZUjgcxiHqNRs6hB5g-350" value="Instructor&#39;s Last Name varchar(50)" style="shape=partialRectangle;overflow=hidden;connectable=0;fillColor=none;top=0;left=0;bottom=0;right=0;align=left;spacingLeft=6;" vertex="1" parent="_2BZUjgcxiHqNRs6hB5g-348">
          <mxGeometry x="30" width="220" height="30" as="geometry">
            <mxRectangle width="220" height="30" as="alternateBounds" />
          </mxGeometry>
        </mxCell>
        <mxCell id="_2BZUjgcxiHqNRs6hB5g-351" value="" style="shape=partialRectangle;collapsible=0;dropTarget=0;pointerEvents=0;fillColor=none;points=[[0,0.5],[1,0.5]];portConstraint=eastwest;top=0;left=0;right=0;bottom=0;" vertex="1" parent="_2BZUjgcxiHqNRs6hB5g-341">
          <mxGeometry y="120" width="250" height="30" as="geometry" />
        </mxCell>
        <mxCell id="_2BZUjgcxiHqNRs6hB5g-352" value="" style="shape=partialRectangle;overflow=hidden;connectable=0;fillColor=none;top=0;left=0;bottom=0;right=0;" vertex="1" parent="_2BZUjgcxiHqNRs6hB5g-351">
          <mxGeometry width="30" height="30" as="geometry">
            <mxRectangle width="30" height="30" as="alternateBounds" />
          </mxGeometry>
        </mxCell>
        <mxCell id="_2BZUjgcxiHqNRs6hB5g-353" value="Instructor&#39;s Id int" style="shape=partialRectangle;overflow=hidden;connectable=0;fillColor=none;top=0;left=0;bottom=0;right=0;align=left;spacingLeft=6;" vertex="1" parent="_2BZUjgcxiHqNRs6hB5g-351">
          <mxGeometry x="30" width="220" height="30" as="geometry">
            <mxRectangle width="220" height="30" as="alternateBounds" />
          </mxGeometry>
        </mxCell>
        <mxCell id="_2BZUjgcxiHqNRs6hB5g-354" value="" style="shape=partialRectangle;collapsible=0;dropTarget=0;pointerEvents=0;fillColor=none;points=[[0,0.5],[1,0.5]];portConstraint=eastwest;top=0;left=0;right=0;bottom=0;" vertex="1" parent="_2BZUjgcxiHqNRs6hB5g-341">
          <mxGeometry y="150" width="250" height="30" as="geometry" />
        </mxCell>
        <mxCell id="_2BZUjgcxiHqNRs6hB5g-355" value="" style="shape=partialRectangle;overflow=hidden;connectable=0;fillColor=none;top=0;left=0;bottom=0;right=0;" vertex="1" parent="_2BZUjgcxiHqNRs6hB5g-354">
          <mxGeometry width="30" height="30" as="geometry">
            <mxRectangle width="30" height="30" as="alternateBounds" />
          </mxGeometry>
        </mxCell>
        <mxCell id="_2BZUjgcxiHqNRs6hB5g-356" value="FirstName varchar(255)" style="shape=partialRectangle;overflow=hidden;connectable=0;fillColor=none;top=0;left=0;bottom=0;right=0;align=left;spacingLeft=6;" vertex="1" parent="_2BZUjgcxiHqNRs6hB5g-354">
          <mxGeometry x="30" width="220" height="30" as="geometry">
            <mxRectangle width="220" height="30" as="alternateBounds" />
          </mxGeometry>
        </mxCell>
        <mxCell id="_2BZUjgcxiHqNRs6hB5g-357" value="" style="shape=partialRectangle;collapsible=0;dropTarget=0;pointerEvents=0;fillColor=none;points=[[0,0.5],[1,0.5]];portConstraint=eastwest;top=0;left=0;right=0;bottom=0;" vertex="1" parent="_2BZUjgcxiHqNRs6hB5g-341">
          <mxGeometry y="180" width="250" height="30" as="geometry" />
        </mxCell>
        <mxCell id="_2BZUjgcxiHqNRs6hB5g-358" value="" style="shape=partialRectangle;overflow=hidden;connectable=0;fillColor=none;top=0;left=0;bottom=0;right=0;" vertex="1" parent="_2BZUjgcxiHqNRs6hB5g-357">
          <mxGeometry width="30" height="30" as="geometry">
            <mxRectangle width="30" height="30" as="alternateBounds" />
          </mxGeometry>
        </mxCell>
        <mxCell id="_2BZUjgcxiHqNRs6hB5g-359" value="LastName varchar(255)" style="shape=partialRectangle;overflow=hidden;connectable=0;fillColor=none;top=0;left=0;bottom=0;right=0;align=left;spacingLeft=6;" vertex="1" parent="_2BZUjgcxiHqNRs6hB5g-357">
          <mxGeometry x="30" width="220" height="30" as="geometry">
            <mxRectangle width="220" height="30" as="alternateBounds" />
          </mxGeometry>
        </mxCell>
        <mxCell id="_2BZUjgcxiHqNRs6hB5g-360" value="" style="shape=partialRectangle;collapsible=0;dropTarget=0;pointerEvents=0;fillColor=none;points=[[0,0.5],[1,0.5]];portConstraint=eastwest;top=0;left=0;right=0;bottom=0;" vertex="1" parent="_2BZUjgcxiHqNRs6hB5g-341">
          <mxGeometry y="210" width="250" height="30" as="geometry" />
        </mxCell>
        <mxCell id="_2BZUjgcxiHqNRs6hB5g-361" value="" style="shape=partialRectangle;overflow=hidden;connectable=0;fillColor=none;top=0;left=0;bottom=0;right=0;" vertex="1" parent="_2BZUjgcxiHqNRs6hB5g-360">
          <mxGeometry width="30" height="30" as="geometry">
            <mxRectangle width="30" height="30" as="alternateBounds" />
          </mxGeometry>
        </mxCell>
        <mxCell id="_2BZUjgcxiHqNRs6hB5g-362" value="Weight decimal(5,2)" style="shape=partialRectangle;overflow=hidden;connectable=0;fillColor=none;top=0;left=0;bottom=0;right=0;align=left;spacingLeft=6;" vertex="1" parent="_2BZUjgcxiHqNRs6hB5g-360">
          <mxGeometry x="30" width="220" height="30" as="geometry">
            <mxRectangle width="220" height="30" as="alternateBounds" />
          </mxGeometry>
        </mxCell>
        <mxCell id="_2BZUjgcxiHqNRs6hB5g-363" value="" style="shape=partialRectangle;collapsible=0;dropTarget=0;pointerEvents=0;fillColor=none;points=[[0,0.5],[1,0.5]];portConstraint=eastwest;top=0;left=0;right=0;bottom=0;" vertex="1" parent="_2BZUjgcxiHqNRs6hB5g-341">
          <mxGeometry y="240" width="250" height="30" as="geometry" />
        </mxCell>
        <mxCell id="_2BZUjgcxiHqNRs6hB5g-364" value="" style="shape=partialRectangle;overflow=hidden;connectable=0;fillColor=none;top=0;left=0;bottom=0;right=0;" vertex="1" parent="_2BZUjgcxiHqNRs6hB5g-363">
          <mxGeometry width="30" height="30" as="geometry">
            <mxRectangle width="30" height="30" as="alternateBounds" />
          </mxGeometry>
        </mxCell>
        <mxCell id="_2BZUjgcxiHqNRs6hB5g-365" value="Contact varchar(20)" style="shape=partialRectangle;overflow=hidden;connectable=0;fillColor=none;top=0;left=0;bottom=0;right=0;align=left;spacingLeft=6;" vertex="1" parent="_2BZUjgcxiHqNRs6hB5g-363">
          <mxGeometry x="30" width="220" height="30" as="geometry">
            <mxRectangle width="220" height="30" as="alternateBounds" />
          </mxGeometry>
        </mxCell>
        <mxCell id="_2BZUjgcxiHqNRs6hB5g-366" value="" style="shape=partialRectangle;collapsible=0;dropTarget=0;pointerEvents=0;fillColor=none;points=[[0,0.5],[1,0.5]];portConstraint=eastwest;top=0;left=0;right=0;bottom=0;" vertex="1" parent="_2BZUjgcxiHqNRs6hB5g-341">
          <mxGeometry y="270" width="250" height="30" as="geometry" />
        </mxCell>
        <mxCell id="_2BZUjgcxiHqNRs6hB5g-367" value="" style="shape=partialRectangle;overflow=hidden;connectable=0;fillColor=none;top=0;left=0;bottom=0;right=0;" vertex="1" parent="_2BZUjgcxiHqNRs6hB5g-366">
          <mxGeometry width="30" height="30" as="geometry">
            <mxRectangle width="30" height="30" as="alternateBounds" />
          </mxGeometry>
        </mxCell>
        <mxCell id="_2BZUjgcxiHqNRs6hB5g-368" value="Gender varchar(25)" style="shape=partialRectangle;overflow=hidden;connectable=0;fillColor=none;top=0;left=0;bottom=0;right=0;align=left;spacingLeft=6;" vertex="1" parent="_2BZUjgcxiHqNRs6hB5g-366">
          <mxGeometry x="30" width="220" height="30" as="geometry">
            <mxRectangle width="220" height="30" as="alternateBounds" />
          </mxGeometry>
        </mxCell>
        <mxCell id="_2BZUjgcxiHqNRs6hB5g-369" value="" style="shape=partialRectangle;collapsible=0;dropTarget=0;pointerEvents=0;fillColor=none;points=[[0,0.5],[1,0.5]];portConstraint=eastwest;top=0;left=0;right=0;bottom=0;" vertex="1" parent="_2BZUjgcxiHqNRs6hB5g-341">
          <mxGeometry y="300" width="250" height="30" as="geometry" />
        </mxCell>
        <mxCell id="_2BZUjgcxiHqNRs6hB5g-370" value="" style="shape=partialRectangle;overflow=hidden;connectable=0;fillColor=none;top=0;left=0;bottom=0;right=0;" vertex="1" parent="_2BZUjgcxiHqNRs6hB5g-369">
          <mxGeometry width="30" height="30" as="geometry">
            <mxRectangle width="30" height="30" as="alternateBounds" />
          </mxGeometry>
        </mxCell>
        <mxCell id="_2BZUjgcxiHqNRs6hB5g-371" value="amount decimal(10,2)" style="shape=partialRectangle;overflow=hidden;connectable=0;fillColor=none;top=0;left=0;bottom=0;right=0;align=left;spacingLeft=6;" vertex="1" parent="_2BZUjgcxiHqNRs6hB5g-369">
          <mxGeometry x="30" width="220" height="30" as="geometry">
            <mxRectangle width="220" height="30" as="alternateBounds" />
          </mxGeometry>
        </mxCell>
        <mxCell id="_2BZUjgcxiHqNRs6hB5g-372" value="" style="shape=partialRectangle;collapsible=0;dropTarget=0;pointerEvents=0;fillColor=none;points=[[0,0.5],[1,0.5]];portConstraint=eastwest;top=0;left=0;right=0;bottom=0;" vertex="1" parent="_2BZUjgcxiHqNRs6hB5g-341">
          <mxGeometry y="330" width="250" height="30" as="geometry" />
        </mxCell>
        <mxCell id="_2BZUjgcxiHqNRs6hB5g-373" value="" style="shape=partialRectangle;overflow=hidden;connectable=0;fillColor=none;top=0;left=0;bottom=0;right=0;" vertex="1" parent="_2BZUjgcxiHqNRs6hB5g-372">
          <mxGeometry width="30" height="30" as="geometry">
            <mxRectangle width="30" height="30" as="alternateBounds" />
          </mxGeometry>
        </mxCell>
        <mxCell id="_2BZUjgcxiHqNRs6hB5g-374" value="status varchar(50)" style="shape=partialRectangle;overflow=hidden;connectable=0;fillColor=none;top=0;left=0;bottom=0;right=0;align=left;spacingLeft=6;" vertex="1" parent="_2BZUjgcxiHqNRs6hB5g-372">
          <mxGeometry x="30" width="220" height="30" as="geometry">
            <mxRectangle width="220" height="30" as="alternateBounds" />
          </mxGeometry>
        </mxCell>
        <mxCell id="_2BZUjgcxiHqNRs6hB5g-375" value="yogaapplicants" style="shape=table;startSize=30;container=1;collapsible=1;childLayout=tableLayout;fixedRows=1;rowLines=0;fontStyle=1;align=center;resizeLast=1;fillStyle=solid;" vertex="1" parent="1">
          <mxGeometry x="742" y="894" width="250" height="370" as="geometry" />
        </mxCell>
        <mxCell id="_2BZUjgcxiHqNRs6hB5g-376" value="" style="shape=partialRectangle;collapsible=0;dropTarget=0;pointerEvents=0;fillColor=none;points=[[0,0.5],[1,0.5]];portConstraint=eastwest;top=0;left=0;right=0;bottom=1;" vertex="1" parent="_2BZUjgcxiHqNRs6hB5g-375">
          <mxGeometry y="30" width="250" height="30" as="geometry" />
        </mxCell>
        <mxCell id="_2BZUjgcxiHqNRs6hB5g-377" value="PK" style="shape=partialRectangle;overflow=hidden;connectable=0;fillColor=none;top=0;left=0;bottom=0;right=0;fontStyle=1;" vertex="1" parent="_2BZUjgcxiHqNRs6hB5g-376">
          <mxGeometry width="30" height="30" as="geometry">
            <mxRectangle width="30" height="30" as="alternateBounds" />
          </mxGeometry>
        </mxCell>
        <mxCell id="_2BZUjgcxiHqNRs6hB5g-378" value="Transaction_id int AI PK" style="shape=partialRectangle;overflow=hidden;connectable=0;fillColor=none;top=0;left=0;bottom=0;right=0;align=left;spacingLeft=6;fontStyle=5;" vertex="1" parent="_2BZUjgcxiHqNRs6hB5g-376">
          <mxGeometry x="30" width="220" height="30" as="geometry">
            <mxRectangle width="220" height="30" as="alternateBounds" />
          </mxGeometry>
        </mxCell>
        <mxCell id="_2BZUjgcxiHqNRs6hB5g-379" value="" style="shape=partialRectangle;collapsible=0;dropTarget=0;pointerEvents=0;fillColor=none;points=[[0,0.5],[1,0.5]];portConstraint=eastwest;top=0;left=0;right=0;bottom=0;" vertex="1" parent="_2BZUjgcxiHqNRs6hB5g-375">
          <mxGeometry y="60" width="250" height="30" as="geometry" />
        </mxCell>
        <mxCell id="_2BZUjgcxiHqNRs6hB5g-380" value="" style="shape=partialRectangle;overflow=hidden;connectable=0;fillColor=none;top=0;left=0;bottom=0;right=0;" vertex="1" parent="_2BZUjgcxiHqNRs6hB5g-379">
          <mxGeometry width="30" height="30" as="geometry">
            <mxRectangle width="30" height="30" as="alternateBounds" />
          </mxGeometry>
        </mxCell>
        <mxCell id="_2BZUjgcxiHqNRs6hB5g-381" value="Instructor&#39;s First Name varchar(50)" style="shape=partialRectangle;overflow=hidden;connectable=0;fillColor=none;top=0;left=0;bottom=0;right=0;align=left;spacingLeft=6;" vertex="1" parent="_2BZUjgcxiHqNRs6hB5g-379">
          <mxGeometry x="30" width="220" height="30" as="geometry">
            <mxRectangle width="220" height="30" as="alternateBounds" />
          </mxGeometry>
        </mxCell>
        <mxCell id="_2BZUjgcxiHqNRs6hB5g-382" value="" style="shape=partialRectangle;collapsible=0;dropTarget=0;pointerEvents=0;fillColor=none;points=[[0,0.5],[1,0.5]];portConstraint=eastwest;top=0;left=0;right=0;bottom=0;" vertex="1" parent="_2BZUjgcxiHqNRs6hB5g-375">
          <mxGeometry y="90" width="250" height="30" as="geometry" />
        </mxCell>
        <mxCell id="_2BZUjgcxiHqNRs6hB5g-383" value="" style="shape=partialRectangle;overflow=hidden;connectable=0;fillColor=none;top=0;left=0;bottom=0;right=0;" vertex="1" parent="_2BZUjgcxiHqNRs6hB5g-382">
          <mxGeometry width="30" height="30" as="geometry">
            <mxRectangle width="30" height="30" as="alternateBounds" />
          </mxGeometry>
        </mxCell>
        <mxCell id="_2BZUjgcxiHqNRs6hB5g-384" value="Instructor&#39;s Last Name varchar(50)" style="shape=partialRectangle;overflow=hidden;connectable=0;fillColor=none;top=0;left=0;bottom=0;right=0;align=left;spacingLeft=6;" vertex="1" parent="_2BZUjgcxiHqNRs6hB5g-382">
          <mxGeometry x="30" width="220" height="30" as="geometry">
            <mxRectangle width="220" height="30" as="alternateBounds" />
          </mxGeometry>
        </mxCell>
        <mxCell id="_2BZUjgcxiHqNRs6hB5g-385" value="" style="shape=partialRectangle;collapsible=0;dropTarget=0;pointerEvents=0;fillColor=none;points=[[0,0.5],[1,0.5]];portConstraint=eastwest;top=0;left=0;right=0;bottom=0;" vertex="1" parent="_2BZUjgcxiHqNRs6hB5g-375">
          <mxGeometry y="120" width="250" height="30" as="geometry" />
        </mxCell>
        <mxCell id="_2BZUjgcxiHqNRs6hB5g-386" value="" style="shape=partialRectangle;overflow=hidden;connectable=0;fillColor=none;top=0;left=0;bottom=0;right=0;" vertex="1" parent="_2BZUjgcxiHqNRs6hB5g-385">
          <mxGeometry width="30" height="30" as="geometry">
            <mxRectangle width="30" height="30" as="alternateBounds" />
          </mxGeometry>
        </mxCell>
        <mxCell id="_2BZUjgcxiHqNRs6hB5g-387" value="Instructor&#39;s Id int" style="shape=partialRectangle;overflow=hidden;connectable=0;fillColor=none;top=0;left=0;bottom=0;right=0;align=left;spacingLeft=6;" vertex="1" parent="_2BZUjgcxiHqNRs6hB5g-385">
          <mxGeometry x="30" width="220" height="30" as="geometry">
            <mxRectangle width="220" height="30" as="alternateBounds" />
          </mxGeometry>
        </mxCell>
        <mxCell id="_2BZUjgcxiHqNRs6hB5g-388" value="" style="shape=partialRectangle;collapsible=0;dropTarget=0;pointerEvents=0;fillColor=none;points=[[0,0.5],[1,0.5]];portConstraint=eastwest;top=0;left=0;right=0;bottom=0;" vertex="1" parent="_2BZUjgcxiHqNRs6hB5g-375">
          <mxGeometry y="150" width="250" height="30" as="geometry" />
        </mxCell>
        <mxCell id="_2BZUjgcxiHqNRs6hB5g-389" value="" style="shape=partialRectangle;overflow=hidden;connectable=0;fillColor=none;top=0;left=0;bottom=0;right=0;" vertex="1" parent="_2BZUjgcxiHqNRs6hB5g-388">
          <mxGeometry width="30" height="30" as="geometry">
            <mxRectangle width="30" height="30" as="alternateBounds" />
          </mxGeometry>
        </mxCell>
        <mxCell id="_2BZUjgcxiHqNRs6hB5g-390" value="FirstName varchar(255)" style="shape=partialRectangle;overflow=hidden;connectable=0;fillColor=none;top=0;left=0;bottom=0;right=0;align=left;spacingLeft=6;" vertex="1" parent="_2BZUjgcxiHqNRs6hB5g-388">
          <mxGeometry x="30" width="220" height="30" as="geometry">
            <mxRectangle width="220" height="30" as="alternateBounds" />
          </mxGeometry>
        </mxCell>
        <mxCell id="_2BZUjgcxiHqNRs6hB5g-391" value="" style="shape=partialRectangle;collapsible=0;dropTarget=0;pointerEvents=0;fillColor=none;points=[[0,0.5],[1,0.5]];portConstraint=eastwest;top=0;left=0;right=0;bottom=0;" vertex="1" parent="_2BZUjgcxiHqNRs6hB5g-375">
          <mxGeometry y="180" width="250" height="30" as="geometry" />
        </mxCell>
        <mxCell id="_2BZUjgcxiHqNRs6hB5g-392" value="" style="shape=partialRectangle;overflow=hidden;connectable=0;fillColor=none;top=0;left=0;bottom=0;right=0;" vertex="1" parent="_2BZUjgcxiHqNRs6hB5g-391">
          <mxGeometry width="30" height="30" as="geometry">
            <mxRectangle width="30" height="30" as="alternateBounds" />
          </mxGeometry>
        </mxCell>
        <mxCell id="_2BZUjgcxiHqNRs6hB5g-393" value="LastName varchar(255)" style="shape=partialRectangle;overflow=hidden;connectable=0;fillColor=none;top=0;left=0;bottom=0;right=0;align=left;spacingLeft=6;" vertex="1" parent="_2BZUjgcxiHqNRs6hB5g-391">
          <mxGeometry x="30" width="220" height="30" as="geometry">
            <mxRectangle width="220" height="30" as="alternateBounds" />
          </mxGeometry>
        </mxCell>
        <mxCell id="_2BZUjgcxiHqNRs6hB5g-394" value="" style="shape=partialRectangle;collapsible=0;dropTarget=0;pointerEvents=0;fillColor=none;points=[[0,0.5],[1,0.5]];portConstraint=eastwest;top=0;left=0;right=0;bottom=0;" vertex="1" parent="_2BZUjgcxiHqNRs6hB5g-375">
          <mxGeometry y="210" width="250" height="30" as="geometry" />
        </mxCell>
        <mxCell id="_2BZUjgcxiHqNRs6hB5g-395" value="" style="shape=partialRectangle;overflow=hidden;connectable=0;fillColor=none;top=0;left=0;bottom=0;right=0;" vertex="1" parent="_2BZUjgcxiHqNRs6hB5g-394">
          <mxGeometry width="30" height="30" as="geometry">
            <mxRectangle width="30" height="30" as="alternateBounds" />
          </mxGeometry>
        </mxCell>
        <mxCell id="_2BZUjgcxiHqNRs6hB5g-396" value="Weight decimal(5,2)" style="shape=partialRectangle;overflow=hidden;connectable=0;fillColor=none;top=0;left=0;bottom=0;right=0;align=left;spacingLeft=6;" vertex="1" parent="_2BZUjgcxiHqNRs6hB5g-394">
          <mxGeometry x="30" width="220" height="30" as="geometry">
            <mxRectangle width="220" height="30" as="alternateBounds" />
          </mxGeometry>
        </mxCell>
        <mxCell id="_2BZUjgcxiHqNRs6hB5g-397" value="" style="shape=partialRectangle;collapsible=0;dropTarget=0;pointerEvents=0;fillColor=none;points=[[0,0.5],[1,0.5]];portConstraint=eastwest;top=0;left=0;right=0;bottom=0;" vertex="1" parent="_2BZUjgcxiHqNRs6hB5g-375">
          <mxGeometry y="240" width="250" height="30" as="geometry" />
        </mxCell>
        <mxCell id="_2BZUjgcxiHqNRs6hB5g-398" value="" style="shape=partialRectangle;overflow=hidden;connectable=0;fillColor=none;top=0;left=0;bottom=0;right=0;" vertex="1" parent="_2BZUjgcxiHqNRs6hB5g-397">
          <mxGeometry width="30" height="30" as="geometry">
            <mxRectangle width="30" height="30" as="alternateBounds" />
          </mxGeometry>
        </mxCell>
        <mxCell id="_2BZUjgcxiHqNRs6hB5g-399" value="Contact varchar(20)" style="shape=partialRectangle;overflow=hidden;connectable=0;fillColor=none;top=0;left=0;bottom=0;right=0;align=left;spacingLeft=6;" vertex="1" parent="_2BZUjgcxiHqNRs6hB5g-397">
          <mxGeometry x="30" width="220" height="30" as="geometry">
            <mxRectangle width="220" height="30" as="alternateBounds" />
          </mxGeometry>
        </mxCell>
        <mxCell id="_2BZUjgcxiHqNRs6hB5g-400" value="" style="shape=partialRectangle;collapsible=0;dropTarget=0;pointerEvents=0;fillColor=none;points=[[0,0.5],[1,0.5]];portConstraint=eastwest;top=0;left=0;right=0;bottom=0;" vertex="1" parent="_2BZUjgcxiHqNRs6hB5g-375">
          <mxGeometry y="270" width="250" height="30" as="geometry" />
        </mxCell>
        <mxCell id="_2BZUjgcxiHqNRs6hB5g-401" value="" style="shape=partialRectangle;overflow=hidden;connectable=0;fillColor=none;top=0;left=0;bottom=0;right=0;" vertex="1" parent="_2BZUjgcxiHqNRs6hB5g-400">
          <mxGeometry width="30" height="30" as="geometry">
            <mxRectangle width="30" height="30" as="alternateBounds" />
          </mxGeometry>
        </mxCell>
        <mxCell id="_2BZUjgcxiHqNRs6hB5g-402" value="Gender varchar(25)" style="shape=partialRectangle;overflow=hidden;connectable=0;fillColor=none;top=0;left=0;bottom=0;right=0;align=left;spacingLeft=6;" vertex="1" parent="_2BZUjgcxiHqNRs6hB5g-400">
          <mxGeometry x="30" width="220" height="30" as="geometry">
            <mxRectangle width="220" height="30" as="alternateBounds" />
          </mxGeometry>
        </mxCell>
        <mxCell id="_2BZUjgcxiHqNRs6hB5g-403" value="" style="shape=partialRectangle;collapsible=0;dropTarget=0;pointerEvents=0;fillColor=none;points=[[0,0.5],[1,0.5]];portConstraint=eastwest;top=0;left=0;right=0;bottom=0;" vertex="1" parent="_2BZUjgcxiHqNRs6hB5g-375">
          <mxGeometry y="300" width="250" height="30" as="geometry" />
        </mxCell>
        <mxCell id="_2BZUjgcxiHqNRs6hB5g-404" value="" style="shape=partialRectangle;overflow=hidden;connectable=0;fillColor=none;top=0;left=0;bottom=0;right=0;" vertex="1" parent="_2BZUjgcxiHqNRs6hB5g-403">
          <mxGeometry width="30" height="30" as="geometry">
            <mxRectangle width="30" height="30" as="alternateBounds" />
          </mxGeometry>
        </mxCell>
        <mxCell id="_2BZUjgcxiHqNRs6hB5g-405" value="amount decimal(10,2)" style="shape=partialRectangle;overflow=hidden;connectable=0;fillColor=none;top=0;left=0;bottom=0;right=0;align=left;spacingLeft=6;" vertex="1" parent="_2BZUjgcxiHqNRs6hB5g-403">
          <mxGeometry x="30" width="220" height="30" as="geometry">
            <mxRectangle width="220" height="30" as="alternateBounds" />
          </mxGeometry>
        </mxCell>
        <mxCell id="_2BZUjgcxiHqNRs6hB5g-406" value="" style="shape=partialRectangle;collapsible=0;dropTarget=0;pointerEvents=0;fillColor=none;points=[[0,0.5],[1,0.5]];portConstraint=eastwest;top=0;left=0;right=0;bottom=0;" vertex="1" parent="_2BZUjgcxiHqNRs6hB5g-375">
          <mxGeometry y="330" width="250" height="30" as="geometry" />
        </mxCell>
        <mxCell id="_2BZUjgcxiHqNRs6hB5g-407" value="" style="shape=partialRectangle;overflow=hidden;connectable=0;fillColor=none;top=0;left=0;bottom=0;right=0;" vertex="1" parent="_2BZUjgcxiHqNRs6hB5g-406">
          <mxGeometry width="30" height="30" as="geometry">
            <mxRectangle width="30" height="30" as="alternateBounds" />
          </mxGeometry>
        </mxCell>
        <mxCell id="_2BZUjgcxiHqNRs6hB5g-408" value="status varchar(25)" style="shape=partialRectangle;overflow=hidden;connectable=0;fillColor=none;top=0;left=0;bottom=0;right=0;align=left;spacingLeft=6;" vertex="1" parent="_2BZUjgcxiHqNRs6hB5g-406">
          <mxGeometry x="30" width="220" height="30" as="geometry">
            <mxRectangle width="220" height="30" as="alternateBounds" />
          </mxGeometry>
        </mxCell>
      </root>
    </mxGraphModel>
  </diagram>
</mxfile>
